<?xml version="1.0" encoding="UTF-8"?>
<svg version="1.1" xmlns="http://www.w3.org/2000/svg" width="500" height="500">
<path d="M0 0 C0 100.98 0 201.96 0 306 C-7 306 -7 306 -9.91796875 304.26953125 C-13.1177728 299.24469825 -12.53357291 294.50681911 -12.3125 288.6875 C-12.28994141 287.56537109 -12.26738281 286.44324219 -12.24414062 285.28710938 C-12.18533776 282.52337464 -12.10320401 279.76237446 -12 277 C-12.85271484 276.91238403 -12.85271484 276.91238403 -13.72265625 276.82299805 C-39.70061187 274.06094287 -66.16133016 264.83866984 -85 246 C-85 245.01 -85 244.02 -85 243 C-79.98748969 243.50125103 -76.44158978 244.67825989 -72 247 C-71.01 247 -70.02 247 -69 247 C-71.31 245.68 -73.62 244.36 -76 243 C-76 242.34 -76 241.68 -76 241 C-77.65 240.34 -79.3 239.68 -81 239 C-81 238.34 -81 237.68 -81 237 C-83.97 236.01 -83.97 236.01 -87 235 C-87.60328125 235.80824219 -88.2065625 236.61648438 -88.828125 237.44921875 C-89.6353731 238.52867842 -90.44266722 239.60810367 -91.25 240.6875 C-92.03890625 241.74324219 -92.8278125 242.79898438 -93.640625 243.88671875 C-95.71826483 246.62824018 -97.83680647 249.3257768 -100 252 C-100.99 251.67 -101.98 251.34 -103 251 C-103.87207031 248.88061523 -103.87207031 248.88061523 -104.578125 246.05859375 C-104.84834473 245.011875 -105.11856445 243.96515625 -105.39697266 242.88671875 C-105.67847168 241.74847656 -105.9599707 240.61023438 -106.25 239.4375 C-106.86494023 237.05020125 -107.48218022 234.66349387 -108.1015625 232.27734375 C-108.41512695 231.06159668 -108.72869141 229.84584961 -109.05175781 228.59326172 C-110.47536416 223.19865866 -112.0414177 217.8494342 -113.625 212.5 C-114.20217288 210.53525902 -114.77900276 208.57041725 -115.35546875 206.60546875 C-115.63052246 205.66880371 -115.90557617 204.73213867 -116.18896484 203.76708984 C-117.45341469 199.4530397 -118.70731786 195.13645173 -119.9375 190.8125 C-120.14906738 190.08804688 -120.36063477 189.36359375 -120.57861328 188.6171875 C-121.60101143 184.99050198 -122.24176526 181.77300326 -122 178 C-109.82928486 178.57390364 -97.7984381 180.02117656 -85.71435547 181.53662109 C-82.3423341 181.95729262 -78.96954227 182.37067242 -75.59623718 182.78086853 C-72.66097018 183.13817464 -69.72606566 183.49839833 -66.79122925 183.85922241 C-65.35247431 184.0357452 -63.91361145 184.21139076 -62.47463989 184.38613892 C-60.45407824 184.63201495 -58.43405725 184.88232169 -56.4140625 185.1328125 C-54.66536865 185.34768311 -54.66536865 185.34768311 -52.88134766 185.56689453 C-50 186 -50 186 -47 187 C-47.5805321 190.30118794 -48.54868099 191.91134076 -50.94140625 194.234375 C-51.81635742 195.09482422 -51.81635742 195.09482422 -52.70898438 195.97265625 C-53.32064453 196.55917969 -53.93230469 197.14570313 -54.5625 197.75 C-55.48579102 198.65298828 -55.48579102 198.65298828 -56.42773438 199.57421875 C-57.94514813 201.05634381 -59.47170596 202.5290967 -61 204 C-60.505 204.45375 -60.01 204.9075 -59.5 205.375 C-58 207 -58 207 -58 209 C-57.26136719 209.26554688 -56.52273437 209.53109375 -55.76171875 209.8046875 C-53.03513064 210.98479494 -51.14099449 212.30122472 -48.8125 214.125 C-44.16572706 217.44016039 -39.36962476 219.90764248 -34.1875 222.25 C-33.47762939 222.57887207 -32.76775879 222.90774414 -32.03637695 223.24658203 C-25.32172008 226.19162016 -19.46772455 227.27667895 -12 229 C-12.33 210.85 -12.66 192.7 -13 174 C-20.59 171.69 -28.18 169.38 -36 167 C-55.51038182 159.62212452 -73.35394969 149.00719886 -82.62890625 129.58984375 C-90.00051426 112.88291569 -91.17534975 94.36817117 -85 77 C-76.83966685 56.69332481 -62.18611784 43.41359952 -42.31640625 34.7265625 C-32.4566324 30.64833205 -22.60276476 28.80571406 -12 28 C-12.0314209 26.9941687 -12.0314209 26.9941687 -12.06347656 25.96801758 C-12.14686027 22.9163322 -12.19873016 19.86488683 -12.25 16.8125 C-12.28351563 15.75740234 -12.31703125 14.70230469 -12.3515625 13.61523438 C-12.40816847 9.12921152 -12.40390244 5.86297713 -10.484375 1.76171875 C-8 0 -8 0 0 0 Z M-18.75 77.25 C-20.32007813 77.87648438 -20.32007813 77.87648438 -21.921875 78.515625 C-25.05465937 80.02635858 -27.45109165 81.63989968 -30 84 C-30 84.66 -30 85.32 -30 86 C-30.66 86 -31.32 86 -32 86 C-35.05655054 91.89477604 -36.84686457 96.33094149 -36 103 C-33.47590023 110.90088035 -28.04465359 115.53828613 -20.875 119.3125 C-17.77494326 120.83680176 -15.57447942 121.28510412 -12 122 C-12 106.49 -12 90.98 -12 75 C-14.2685965 75 -16.7018441 76.42074663 -18.75 77.25 Z " fill="#3EA7AA" transform="translate(245,97)"/>
<path d="M0 0 C3.71077942 0.21004412 6.21935359 0.39905086 9.20605469 2.69824219 C11.44645017 5.57282692 11.46740228 7.03209276 11.390625 10.640625 C11.37773437 11.71054688 11.36484375 12.78046875 11.3515625 13.8828125 C11.31804687 14.99398437 11.28453125 16.10515625 11.25 17.25 C11.23195313 18.37664062 11.21390625 19.50328125 11.1953125 20.6640625 C11.14820222 23.44356896 11.08243361 26.2213534 11 29 C11.86391357 29.12238037 12.72782715 29.24476074 13.61791992 29.37084961 C35.56580165 32.52870518 60.02296709 39.43122513 76 56 C77.015625 57.79296875 77.015625 57.79296875 77 60 C75.73879342 62.49570525 74.45012352 64.72868756 72.9375 67.0625 C72.09465693 68.41170164 71.25351856 69.76196966 70.4140625 71.11328125 C69.99930664 71.77537598 69.58455078 72.4374707 69.15722656 73.11962891 C67.62030188 75.61696939 66.20501135 78.16975838 64.8125 80.75 C64.11640625 82.03777344 64.11640625 82.03777344 63.40625 83.3515625 C62.39458178 85.25687097 61.39614602 87.16922708 60.40625 89.0859375 C59.8803125 90.08882813 59.354375 91.09171875 58.8125 92.125 C58.34457031 93.03507812 57.87664062 93.94515625 57.39453125 94.8828125 C56 97 56 97 53 98 C50.42578125 96.41015625 50.42578125 96.41015625 47.3125 94.0625 C42.38044638 90.49103717 37.36805374 87.38330351 31.9375 84.625 C31.32624268 84.304104 30.71498535 83.98320801 30.08520508 83.65258789 C24.04981698 80.6644366 18.91028598 79.72757149 12 78 C11.67 95.82 11.34 113.64 11 132 C15.29 132.99 19.58 133.98 24 135 C28.7282779 136.84838506 33.40741935 138.72036279 38.0234375 140.83007812 C43.15568545 142.9653871 43.15568545 142.9653871 48.44970703 142.08764648 C50.83770198 140.55243519 52.89684484 138.90484465 55 137 C55.58652344 136.48751709 56.17304688 135.97503418 56.77734375 135.44702148 C58.36844044 133.99227028 59.87596978 132.48649789 61.375 130.9375 C61.88160156 130.43412109 62.38820313 129.93074219 62.91015625 129.41210938 C65.80277778 126.47773084 67.8961119 123.51723624 70 120 C70.66 120 71.32 120 72 120 C72 118.68 72 117.36 72 116 C69.70327405 114.31672214 67.52179846 112.90053343 65.0625 111.5 C58.18225569 107.55882388 58.18225569 107.55882388 57.30249023 104.86132812 C57.15275757 103.9399707 57.15275757 103.9399707 57 103 C58.02738281 102.62488281 59.05476563 102.24976563 60.11328125 101.86328125 C61.51310034 101.34656951 62.91283535 100.82962994 64.3125 100.3125 C64.98345703 100.06822266 65.65441406 99.82394531 66.34570312 99.57226562 C70.33914306 98.09113062 74.22331431 96.46714032 78.08984375 94.6796875 C84.39622201 91.77541273 90.81547668 89.17614654 97.26269531 86.60571289 C99.26288656 85.80735646 101.26039277 85.00252729 103.2578125 84.19726562 C104.55192734 83.67929759 105.84619292 83.16170598 107.140625 82.64453125 C108.86587402 81.95387573 108.86587402 81.95387573 110.62597656 81.24926758 C114.0609847 79.97741978 117.46767837 78.96001651 121 78 C121.11781472 87.24278258 120.80446218 96.35105589 120.0625 105.5625 C119.32842023 115.15177831 118.70501266 124.72923009 118.34204102 134.34008789 C118.15471086 138.96137502 117.73782522 143.43280092 117 148 C111.460911 146.17713616 107.83575784 142.59916752 103.5234375 138.80078125 C102.69070313 138.20652344 101.85796875 137.61226562 101 137 C97.62838643 138.12387119 97.27964829 138.70399403 95.4375 141.5625 C94.18359375 143.50390625 94.18359375 143.50390625 93 145 C92.34 145 91.68 145 91 145 C90.773125 145.556875 90.54625 146.11375 90.3125 146.6875 C88.62449964 149.66159588 86.53323483 151.72008865 84 154 C83.34 154 82.68 154 82 154 C82 154.66 82 155.32 82 156 C80.53466797 157.28100586 80.53466797 157.28100586 78.4921875 158.71484375 C77.75226563 159.23626953 77.01234375 159.75769531 76.25 160.29492188 C75.074375 161.10799805 75.074375 161.10799805 73.875 161.9375 C73.11445313 162.47568359 72.35390625 163.01386719 71.5703125 163.56835938 C67.50315634 166.41186251 63.51259037 168.9311287 59 171 C59.80824219 170.79503906 60.61648438 170.59007812 61.44921875 170.37890625 C62.51785156 170.10949219 63.58648437 169.84007812 64.6875 169.5625 C65.74324219 169.29566406 66.79898438 169.02882813 67.88671875 168.75390625 C70.5828317 168.10102068 73.2757576 167.52058807 76 167 C84.96526731 177.39285765 88.77343994 193.93337834 88.21484375 207.49609375 C88.14394531 208.32238281 88.07304687 209.14867187 88 210 C87.91878906 210.98097656 87.83757812 211.96195313 87.75390625 212.97265625 C86.28249668 225.45688382 81.62169874 236.98718009 74 247 C73.48824219 247.73863281 72.97648437 248.47726562 72.44921875 249.23828125 C71.97097656 249.81964844 71.49273437 250.40101563 71 251 C70.34 251 69.68 251 69 251 C69 251.66 69 252.32 69 253 C68.34 253 67.68 253 67 253 C67 253.66 67 254.32 67 255 C66.34 255 65.68 255 65 255 C65 255.66 65 256.32 65 257 C50.36381943 270.01775676 30.11109251 276.19706674 11 278 C11.02618408 278.70084717 11.05236816 279.40169434 11.0793457 280.1237793 C11.1835354 283.3114565 11.24839583 286.49877526 11.3125 289.6875 C11.3753418 291.34168945 11.3753418 291.34168945 11.43945312 293.02929688 C11.56163937 301.11802599 11.56163937 301.11802599 8.91796875 305.26953125 C6 307 6 307 -1 307 C-1 282.58 -1 258.16 -1 233 C4.94 232.01 4.94 232.01 11 231 C14.56299365 229.91529132 14.56299365 229.91529132 17.5 228.5625 C18.4590625 228.15128906 19.418125 227.74007812 20.40625 227.31640625 C22.84511811 226.07860722 24.82340292 224.63722105 27 223 C27.66 223 28.32 223 29 223 C29.67561748 221.3369416 30.33933281 219.66905395 31 218 C31.27585937 217.38382813 31.55171875 216.76765625 31.8359375 216.1328125 C34.44498697 209.98120044 33.88280168 205.90805258 31.9375 199.5 C27.42602887 189.98760569 17.26334832 186.44038977 8 183 C6.42565806 182.46601111 4.84932893 181.93785141 3.27124023 181.41503906 C2.46895493 181.1488678 1.66666962 180.88269653 0.84007263 180.60845947 C-0.07076332 180.30727203 -0.07076332 180.30727203 -1 180 C-1.02332641 156.6785713 -1.0409779 133.35714451 -1.05181217 110.03570652 C-1.05697568 99.2079638 -1.06401942 88.38022831 -1.07543945 77.55249023 C-1.08538462 68.11865593 -1.09185303 58.68482687 -1.09408849 49.25098747 C-1.09539589 44.25258514 -1.09848353 39.25419779 -1.10573006 34.25580025 C-1.11248764 29.5568499 -1.1146175 24.85792081 -1.11310768 20.15896606 C-1.11338413 18.42911094 -1.1153908 16.69925516 -1.11920547 14.96940422 C-1.12413864 12.61817177 -1.1229997 10.26702085 -1.12025452 7.91578674 C-1.12117631 6.59670098 -1.1220981 5.27761522 -1.12304783 3.91855717 C-1 1 -1 1 0 0 Z " fill="#46AC97" transform="translate(256,96)"/>
<path d="M0 0 C0.33 0 0.66 0 1 0 C1 56.43 1 112.86 1 171 C-6 171 -6 171 -8.91796875 169.26953125 C-12.1177728 164.24469825 -11.53357291 159.50681911 -11.3125 153.6875 C-11.28994141 152.56537109 -11.26738281 151.44324219 -11.24414062 150.28710938 C-11.18533776 147.52337464 -11.10320401 144.76237446 -11 142 C-11.85271484 141.91238403 -11.85271484 141.91238403 -12.72265625 141.82299805 C-38.70061187 139.06094287 -65.16133016 129.83866984 -84 111 C-84 110.01 -84 109.02 -84 108 C-78.98748969 108.50125103 -75.44158978 109.67825989 -71 112 C-70.01 112 -69.02 112 -68 112 C-70.31 110.68 -72.62 109.36 -75 108 C-75 107.34 -75 106.68 -75 106 C-75.99 105.67 -76.98 105.34 -78 105 C-73.98091743 103.39236697 -71.00418684 104.83514565 -67 106 C-65.515 105.505 -65.515 105.505 -64 105 C-63.20046862 108.28696233 -62.90341064 109.71023192 -64 113 C-62.515 112.505 -62.515 112.505 -61 112 C-60.01 113.65 -59.02 115.3 -58 117 C-58.99 118.65 -59.98 120.3 -61 122 C-59.68 122 -58.36 122 -57 122 C-57 122.66 -57 123.32 -57 124 C-56.34 124.33 -55.68 124.66 -55 125 C-55 125.99 -55 126.98 -55 128 C-54.05125 127.95875 -53.1025 127.9175 -52.125 127.875 C-47.29272342 127.85515492 -42.69372996 128.94225804 -38 130 C-38.33 131.32 -38.66 132.64 -39 134 C-36.02124032 134.48181362 -33.04203251 134.96050857 -30.0625 135.4375 C-29.23169922 135.57220703 -28.40089844 135.70691406 -27.54492188 135.84570312 C-20.71347301 136.93554516 -13.92805996 138 -7 138 C-7 138.66 -7 139.32 -7 140 C-7.66 140.33 -8.32 140.66 -9 141 C-7.515 141.99 -7.515 141.99 -6 143 C-5.8125 146.625 -5.8125 146.625 -6 150 C-6.66 150.33 -7.32 150.66 -8 151 C-8.2358396 156.77807024 -7.86783046 161.51324804 -6 167 C-5.34 167 -4.68 167 -4 167 C-4 167.66 -4 168.32 -4 169 C-3.01 169 -2.02 169 -1 169 C-0.96887515 163.41668036 -0.95001636 157.83339165 -0.9375 152.25 C-0.934086 150.91671158 -0.934086 150.91671158 -0.93060303 149.55648804 C-0.91003801 138.85664989 -0.98472219 128.16840642 -1.29296875 117.47265625 C-2.39022485 78.26933228 -1.25869138 39.18603445 0 0 Z " fill="#83BF8C" transform="translate(244,232)"/>
<path d="M0 0 C3.71077942 0.21004412 6.21935359 0.39905086 9.20605469 2.69824219 C11.44645017 5.57282692 11.46740228 7.03209276 11.390625 10.640625 C11.37773437 11.71054688 11.36484375 12.78046875 11.3515625 13.8828125 C11.31804687 14.99398437 11.28453125 16.10515625 11.25 17.25 C11.23195313 18.37664062 11.21390625 19.50328125 11.1953125 20.6640625 C11.14820222 23.44356896 11.08243361 26.2213534 11 29 C11.86391357 29.12238037 12.72782715 29.24476074 13.61791992 29.37084961 C35.56580165 32.52870518 60.02296709 39.43122513 76 56 C77.015625 57.79296875 77.015625 57.79296875 77 60 C75.73883156 62.49562978 74.45013538 64.72877859 72.9375 67.0625 C72.0985484 68.40518179 71.26131841 69.74894078 70.42578125 71.09375 C70.01150879 71.75503906 69.59723633 72.41632813 69.17041016 73.09765625 C65.42377975 79.18729832 62.12695113 85.57237823 59 92 C57.54393481 87.47907032 58.72967159 84.48351204 60 80 C60.99 80 61.98 80 63 80 C63.061875 79.030625 63.12375 78.06125 63.1875 77.0625 C63.86710088 72.17537016 66.22590625 68.02718906 69 64 C69.66 63.67 70.32 63.34 71 63 C71 61.68 71 60.36 71 59 C70.34 58.67 69.68 58.34 69 58 C69 57.34 69 56.68 69 56 C67.35 56 65.7 56 64 56 C64 53.69 64 51.38 64 49 C63.21625 48.855625 62.4325 48.71125 61.625 48.5625 C59 48 59 48 57 47 C57 46.34 57 45.68 57 45 C54.525 45.495 54.525 45.495 52 46 C51.67 45.01 51.34 44.02 51 43 C47.7 42.34 44.4 41.68 41 41 C41 40.34 41 39.68 41 39 C37.41834689 38.14722545 35.40861628 37.86107047 31.875 39.0625 C29 40 29 40 26.625 39.125 C26.08875 38.75375 25.5525 38.3825 25 38 C25.33 37.34 25.66 36.68 26 36 C24.824375 35.71125 23.64875 35.4225 22.4375 35.125 C21.71046875 34.94066406 20.9834375 34.75632813 20.234375 34.56640625 C18.22102854 34.05602996 16.20444371 33.55846976 14.1875 33.0625 C11.03558302 32.01186101 9.94830439 31.56853084 8 29 C7.65942383 26.73168945 7.65942383 26.73168945 7.70703125 24.11328125 C7.71669922 23.17548828 7.72636719 22.23769531 7.73632812 21.27148438 C7.76146484 20.29501953 7.78660156 19.31855469 7.8125 18.3125 C7.82603516 17.32443359 7.83957031 16.33636719 7.85351562 15.31835938 C7.88887797 12.87835769 7.93822967 10.43945281 8 8 C5.69 7.67 3.38 7.34 1 7 C1 7.99 1 8.98 1 10 C1.99 10.33 2.98 10.66 4 11 C3.835 12.0725 3.67 13.145 3.5 14.25 C2.93573495 18.71709835 2.98295764 23.10008458 3.03320312 27.59594727 C3.00110864 30.88634035 2.78212711 34.10138269 2.5 37.37890625 C1.90130809 45.37060004 1.92054819 53.30583797 2 61.3125 C2.02655942 64.07942215 2.04646597 66.84628063 2.0625 69.61328125 C2.07410156 70.81766846 2.08570313 72.02205566 2.09765625 73.26293945 C2 76 2 76 1 77 C0.90463758 80.16612663 0.87449364 83.31040628 0.88647461 86.47680664 C0.88625557 87.96932198 0.88625557 87.96932198 0.8860321 89.49198914 C0.88673169 92.79806662 0.89452621 96.10408854 0.90234375 99.41015625 C0.90420777 101.69559193 0.90563175 103.98102801 0.90663147 106.26646423 C0.91045793 112.29498387 0.9202893 118.32347959 0.93133545 124.35198975 C0.94154683 130.49832841 0.9461285 136.64467093 0.95117188 142.79101562 C0.96191146 154.86068762 0.9789894 166.93034182 1 179 C2.98 179 4.96 179 7 179 C7 179.99 7 180.98 7 182 C0.125 181.125 0.125 181.125 -1 180 C-1.09932009 177.69873412 -1.12632463 175.39435044 -1.12698364 173.09094238 C-1.12932363 171.99428529 -1.12932363 171.99428529 -1.13171089 170.8754735 C-1.13572351 168.40719666 -1.13253024 165.93898051 -1.12939453 163.47070312 C-1.13074846 161.7086534 -1.13252834 159.94660396 -1.13470459 158.18455505 C-1.13927997 153.3851064 -1.13748894 148.58567914 -1.1343255 143.78623009 C-1.13180244 138.77517004 -1.13413929 133.76411188 -1.13571167 128.75305176 C-1.13753352 120.33617828 -1.13512664 111.91931356 -1.13037109 103.50244141 C-1.12492844 93.75661851 -1.12669109 84.01081653 -1.1321975 74.26499414 C-1.13672818 65.91343331 -1.1373794 57.5618788 -1.13475883 49.21031713 C-1.13319581 44.21528626 -1.13300298 39.22026524 -1.13629532 34.22523499 C-1.13917338 29.53037087 -1.13719954 24.83553385 -1.13140106 20.14067268 C-1.13007311 18.4124309 -1.13046816 16.68418686 -1.13266373 14.95594597 C-1.13537388 12.60695187 -1.13199578 10.25804601 -1.12698364 7.90905762 C-1.12660662 6.59127068 -1.12622959 5.27348373 -1.12584114 3.91576385 C-1 1 -1 1 0 0 Z " fill="#65A9BD" transform="translate(256,96)"/>
<path d="M0 0 C0 38.28 0 76.56 0 116 C-0.33 116 -0.66 116 -1 116 C-1.74560555 108.89636973 -2.14280544 101.89601353 -2.11352539 94.75512695 C-2.11367142 93.79767075 -2.11381744 92.84021454 -2.1139679 91.85374451 C-2.11327881 88.73189926 -2.1055341 85.6101159 -2.09765625 82.48828125 C-2.09578849 80.30681898 -2.09436628 78.12535628 -2.09336853 75.94389343 C-2.0895715 70.23445453 -2.07976558 64.52504154 -2.06866455 58.81561279 C-2.05838959 52.97668813 -2.05385793 47.13775924 -2.04882812 41.29882812 C-2.0381405 29.86587411 -2.02109831 18.43293922 -2 7 C-3.65 7.33 -5.3 7.66 -7 8 C-7.33 9.65 -7.66 11.3 -8 13 C-7.34 13 -6.68 13 -6 13 C-6.350625 14.093125 -6.70125 15.18625 -7.0625 16.3125 C-8.33039454 19.90920373 -8.33039454 19.90920373 -7 23 C-5.515 23.495 -5.515 23.495 -4 24 C-4 26.31 -4 28.62 -4 31 C-9.96674616 32.32594359 -15.92583615 32.0884587 -22 32 C-22 32.66 -22 33.32 -22 34 C-23.32 34 -24.64 34 -26 34 C-26.495 34.99 -26.495 34.99 -27 36 C-30.89661527 38.07007686 -34.68798128 38.36557857 -39.01171875 38.65625 C-41.22671605 38.84251143 -41.22671605 38.84251143 -43 41 C-43.99 41.33 -44.98 41.66 -46 42 C-45.505 44.475 -45.505 44.475 -45 47 C-46.32 47 -47.64 47 -49 47 C-49.33 45.68 -49.66 44.36 -50 43 C-51.98998151 44.80045946 -53.17552256 46.31447791 -54.5 48.6875 C-54.995 49.450625 -55.49 50.21375 -56 51 C-56.99 51 -57.98 51 -59 51 C-60.35500919 52.31129922 -61.68671343 53.64691687 -63 55 C-63.70125 55.28875 -64.4025 55.5775 -65.125 55.875 C-67.32987348 56.91722385 -67.32987348 56.91722385 -67.9375 59.9375 C-69 63 -69 63 -71.5 64.8125 C-72.7375 65.4003125 -72.7375 65.4003125 -74 66 C-74.99 66.495 -74.99 66.495 -76 67 C-76.66 66.34 -77.32 65.68 -78 65 C-66.17435072 45.78331991 -47.09651665 35.21174387 -25.7578125 29.69140625 C-20.86018014 28.79028262 -15.96204889 28.37707076 -11 28 C-11.0314209 26.9941687 -11.0314209 26.9941687 -11.06347656 25.96801758 C-11.14686027 22.9163322 -11.19873016 19.86488683 -11.25 16.8125 C-11.28351563 15.75740234 -11.31703125 14.70230469 -11.3515625 13.61523438 C-11.40863714 9.09206913 -11.42396328 5.86996426 -9.421875 1.76171875 C-7 0 -7 0 0 0 Z " fill="#4FA1D3" transform="translate(244,97)"/>
<path d="M0 0 C0.33 0 0.66 0 1 0 C1 56.43 1 112.86 1 171 C-0.65 171 -2.3 171 -4 171 C-4.33 169.68 -4.66 168.36 -5 167 C-4.67 167.66 -4.34 168.32 -4 169 C-3.01 169 -2.02 169 -1 169 C-0.96887515 163.41668036 -0.95001636 157.83339165 -0.9375 152.25 C-0.935224 151.36114105 -0.932948 150.4722821 -0.93060303 149.55648804 C-0.91003801 138.85664989 -0.98472219 128.16840642 -1.29296875 117.47265625 C-2.39022485 78.26933228 -1.25869138 39.18603445 0 0 Z " fill="#6FB28B" transform="translate(244,232)"/>
<path d="M0 0 C2.31 0 4.62 0 7 0 C7 38.28 7 76.56 7 116 C6.67 116 6.34 116 6 116 C5.25439445 108.89636973 4.85719456 101.89601353 4.88647461 94.75512695 C4.88632858 93.79767075 4.88618256 92.84021454 4.8860321 91.85374451 C4.88672119 88.73189926 4.8944659 85.6101159 4.90234375 82.48828125 C4.90421151 80.30681898 4.90563372 78.12535628 4.90663147 75.94389343 C4.9104285 70.23445453 4.92023442 64.52504154 4.93133545 58.81561279 C4.94161041 52.97668813 4.94614207 47.13775924 4.95117188 41.29882812 C4.9618595 29.86587411 4.97890169 18.43293922 5 7 C3.35 7.33 1.7 7.66 0 8 C-0.33 9.65 -0.66 11.3 -1 13 C-0.34 13 0.32 13 1 13 C0.649375 14.093125 0.29875 15.18625 -0.0625 16.3125 C-1.33039454 19.90920373 -1.33039454 19.90920373 0 23 C0.99 23.33 1.98 23.66 3 24 C3 26.31 3 28.62 3 31 C1.02 31 -0.96 31 -3 31 C-3.2843299 5.82100747 -3.2843299 5.82100747 0 0 Z " fill="#3297C8" transform="translate(237,97)"/>
<path d="M0 0 C1.0209375 0.2165625 1.0209375 0.2165625 2.0625 0.4375 C8.15014236 2.01659643 8.15014236 2.01659643 14 1 C14.79953138 4.28696233 15.09658936 5.71023192 14 9 C14.99 8.67 15.98 8.34 17 8 C17.99 9.65 18.98 11.3 20 13 C19.505 13.78375 19.01 14.5675 18.5 15.375 C16.83462035 17.78552327 16.83462035 17.78552327 17 20 C12.22349373 20.346626 9.88597408 19.7379579 6.0625 16.875 C5.21042969 16.23820312 4.35835937 15.60140625 3.48046875 14.9453125 C2.66191406 14.30335938 1.84335938 13.66140625 1 13 C0.27425781 12.44054687 -0.45148438 11.88109375 -1.19921875 11.3046875 C-2.87161524 9.95455808 -4.44678064 8.48568808 -6 7 C-6 6.01 -6 5.02 -6 4 C-0.98748969 4.50125103 2.55841022 5.67825989 7 8 C7.99 8 8.98 8 10 8 C6.535 6.02 6.535 6.02 3 4 C3 3.34 3 2.68 3 2 C2.01 1.67 1.02 1.34 0 1 C0 0.67 0 0.34 0 0 Z " fill="#5CB173" transform="translate(166,336)"/>
<path d="M0 0 C0.66 0.99 1.32 1.98 2 3 C1.360625 3.94875 0.72125 4.8975 0.0625 5.875 C-1.92620563 8.75287827 -1.92620563 8.75287827 -3 11 C-3.78375 10.79375 -4.5675 10.5875 -5.375 10.375 C-6.24125 10.25125 -7.1075 10.1275 -8 10 C-8.66 10.66 -9.32 11.32 -10 12 C-12.13671875 12.5625 -12.13671875 12.5625 -14.6875 13 C-20.93223396 14.16354386 -20.93223396 14.16354386 -27 16 C-28.03079137 19.09237412 -28.10925779 21.160551 -28.08178711 24.3984375 C-28.0752562 25.50388916 -28.06872528 26.60934082 -28.06199646 27.74829102 C-28.05056107 28.94510498 -28.03912567 30.14191895 -28.02734375 31.375 C-28.01468766 33.912759 -28.00232743 36.4505195 -27.99023438 38.98828125 C-27.96550734 42.98622652 -27.93763396 46.9840525 -27.90405273 50.98193359 C-27.87364431 54.84212713 -27.85600437 58.70222405 -27.83984375 62.5625 C-27.82638412 63.74312012 -27.8129245 64.92374023 -27.79905701 66.14013672 C-27.77761187 73.31655404 -28.43516957 79.99295658 -30 87 C-30.33 87 -30.66 87 -31 87 C-31 62.58 -31 38.16 -31 13 C-27.04 12.34 -23.08 11.68 -19 11 C-15.43700635 9.91529132 -15.43700635 9.91529132 -12.5 8.5625 C-11.5409375 8.15128906 -10.581875 7.74007813 -9.59375 7.31640625 C-7.15488189 6.07860722 -5.17659708 4.63722105 -3 3 C-2.34 3 -1.68 3 -1 3 C-0.67 2.01 -0.34 1.02 0 0 Z " fill="#70B37B" transform="translate(286,316)"/>
<path d="M0 0 C0.495 0.99 0.495 0.99 1 2 C0.01 2.33 -0.98 2.66 -2 3 C-3.20882096 5.00016466 -3.20882096 5.00016466 -4 7 C-4.66 6.34 -5.32 5.68 -6 5 C-11.59146742 5.46595562 -16.17974638 7.99782954 -20 12 C-20.99 12.33 -21.98 12.66 -23 13 C-23.825 13.845625 -24.65 14.69125 -25.5 15.5625 C-28 18 -28 18 -31 18 C-30.67 20.31 -30.34 22.62 -30 25 C-34.42769017 23.52410328 -38.6336865 21.26930159 -42 18 C-42 17.01 -42 16.02 -42 15 C-40.97261719 14.62488281 -39.94523437 14.24976563 -38.88671875 13.86328125 C-31.71132735 11.22127068 -24.67546948 8.47311038 -17.7421875 5.23828125 C-2.91467066 -1.45733533 -2.91467066 -1.45733533 0 0 Z " fill="#45A8B0" transform="translate(355,184)"/>
<path d="M0 0 C1.46373047 0.02707031 1.46373047 0.02707031 2.95703125 0.0546875 C3.69308594 0.07789063 4.42914063 0.10109375 5.1875 0.125 C5.1875 0.785 5.1875 1.445 5.1875 2.125 C6.1775 1.795 7.1675 1.465 8.1875 1.125 C8.8475 2.445 9.5075 3.765 10.1875 5.125 C9.1975 5.785 8.2075 6.445 7.1875 7.125 C5.99517387 9.17503955 5.99517387 9.17503955 5.1875 11.125 C4.8575 8.815 4.5275 6.505 4.1875 4.125 C-0.9614976 4.125 -6.49604561 6.24087926 -10.5078125 9.50390625 C-11.63428983 10.68771925 -12.72684647 11.90363978 -13.8125 13.125 C-14.4725 13.125 -15.1325 13.125 -15.8125 13.125 C-18.92461539 21.12758243 -20.34918192 27.06992374 -16.8125 35.125 C-16.16036461 36.46550052 -15.49870031 37.80161368 -14.8125 39.125 C-16.7925 39.62 -16.7925 39.62 -18.8125 40.125 C-23.09076049 29.60760962 -22.48376567 19.98814706 -19.8125 9.125 C-20.1425 8.465 -20.4725 7.805 -20.8125 7.125 C-19.45125 7.2796875 -19.45125 7.2796875 -18.0625 7.4375 C-14.64744897 7.48568439 -14.64744897 7.48568439 -12.75 4.75 C-12.110625 3.88375 -11.47125 3.0175 -10.8125 2.125 C-7.11353212 0.23071887 -4.12248101 -0.09933689 0 0 Z " fill="#4399BB" transform="translate(228.8125,169.875)"/>
<path d="M0 0 C0.99 0.33 1.98 0.66 3 1 C3.33 1.99 3.66 2.98 4 4 C5.010625 4.103125 6.02125 4.20625 7.0625 4.3125 C11.12266978 5.02141853 14.24922981 6.32554902 18 8 C19.216875 8.28875 20.43375 8.5775 21.6875 8.875 C25.62081129 10.21084157 26.59258852 11.70987097 29 15 C30.65661761 16.01656081 32.32111559 17.02065076 34 18 C34 18.66 34 19.32 34 20 C34.66 20 35.32 20 36 20 C35.67 20.66 35.34 21.32 35 22 C33.63681641 21.12988281 33.63681641 21.12988281 32.24609375 20.2421875 C21.38512536 13.4409581 10.8477711 7.83539587 -2 6 C-2.33 23.82 -2.66 41.64 -3 60 C-3.33 60 -3.66 60 -4 60 C-5.24381062 49.17218436 -5.08187635 38.37785809 -5 27.5 C-4.97337026 23.90625314 -4.95344007 20.3125583 -4.9375 16.71875 C-4.92920166 15.90208862 -4.92090332 15.08542725 -4.91235352 14.24401855 C-4.89677695 10.65172018 -5.02701797 7.45545696 -6 4 C-4.68 3.67 -3.36 3.34 -2 3 C-2 2.34 -2 1.68 -2 1 C-1.34 0.67 -0.68 0.34 0 0 Z " fill="#3E9FBA" transform="translate(269,168)"/>
<path d="M0 0 C0.22042969 0.89912109 0.22042969 0.89912109 0.4453125 1.81640625 C0.88166401 3.53415619 1.36904822 5.23894759 1.875 6.9375 C1.91625 7.948125 1.9575 8.95875 2 10 C1.2059375 10.66515625 0.411875 11.3303125 -0.40625 12.015625 C-4.1513916 16.32479395 -4.04338789 20.25983938 -4.375 25.8125 C-4.45621094 26.77220703 -4.53742188 27.73191406 -4.62109375 28.72070312 C-5.04301952 34.33998727 -4.88434192 39.43954877 -4 45 C-3.82922438 46.52037742 -3.66166395 48.04112675 -3.5 49.5625 C-3.08142753 53.38944831 -2.56709617 57.19235427 -2 61 C-1.34 61 -0.68 61 0 61 C0.33 62.98 0.66 64.96 1 67 C-3.25179853 64.87410074 -4.81054304 57.41357139 -6.34423828 53.05322266 C-11.35281222 37.3711278 -9.57718113 18.92342109 -2.3125 4.25 C-1.55388309 2.82675411 -0.78773577 1.40733821 0 0 Z " fill="#4DA7C7" transform="translate(165,164)"/>
<path d="M0 0 C2 1 2 1 2 1 Z M-5 -5 C-4.34 -5 -3.68 -5 -3 -5 C-2.87625 -4.030625 -2.7525 -3.06125 -2.625 -2.0625 C-2.315625 -0.5465625 -2.315625 -0.5465625 -2 1 C-1.34 1.33 -0.68 1.66 0 2 C0 3.98 0 5.96 0 8 C0.66 8 1.32 8 2 8 C2.99 9.485 2.99 9.485 4 11 C4.33 10.34 4.66 9.68 5 9 C7.5625 8.375 7.5625 8.375 10 8 C10.66 5.69 11.32 3.38 12 1 C15.3 0.67 18.6 0.34 22 0 C22.99 2.64 23.98 5.28 25 8 C24.34 8 23.68 8 23 8 C23 7.34 23 6.68 23 6 C21.02 5.34 19.04 4.68 17 4 C16.39671875 4.80824219 15.7934375 5.61648438 15.171875 6.44921875 C14.3646269 7.52867842 13.55733278 8.60810367 12.75 9.6875 C11.96109375 10.74324219 11.1721875 11.79898437 10.359375 12.88671875 C8.28173517 15.62824018 6.16319353 18.3257768 4 21 C3.01 20.67 2.02 20.34 1 20 C0.10864258 18.0222168 0.10864258 18.0222168 -0.60546875 15.44921875 C-0.86650391 14.52302734 -1.12753906 13.59683594 -1.39648438 12.64257812 C-1.78803711 11.17981445 -1.78803711 11.17981445 -2.1875 9.6875 C-2.46013672 8.72392578 -2.73277344 7.76035156 -3.01367188 6.76757812 C-4.15232957 2.6495755 -5 -0.69350987 -5 -5 Z " fill="#71BA97" transform="translate(141,328)"/>
<path d="M0 0 C0.33 0 0.66 0 1 0 C1.19925938 3.33273735 1.38223367 6.66618566 1.5625 10 C1.61857422 10.93457031 1.67464844 11.86914062 1.73242188 12.83203125 C2.02366812 18.38512636 1.87461303 23.50613447 1 29 C1.66 29 2.32 29 3 29 C3 37.25 3 45.5 3 54 C3.66 54.33 4.32 54.66 5 55 C5 55.66 5 56.32 5 57 C4.34 57 3.68 57 3 57 C2.34 58.32 1.68 59.64 1 61 C-5.66666667 61 -12.33333333 61 -19 61 C-19.33 58.69 -19.66 56.38 -20 54 C-19.31035156 54.19335938 -18.62070313 54.38671875 -17.91015625 54.5859375 C-16.97042969 54.84632813 -16.03070313 55.10671875 -15.0625 55.375 C-13.68771484 55.75785156 -13.68771484 55.75785156 -12.28515625 56.1484375 C-9.62730206 56.83739376 -6.97507893 57.46231845 -4.29467773 58.05322266 C-3.08617409 58.32013412 -3.08617409 58.32013412 -1.85325623 58.59243774 C-1.24168167 58.72693329 -0.63010712 58.86142883 0 59 C-0.0920953 51.20355403 -0.19937738 43.40742473 -0.31738281 35.61132812 C-0.35574181 32.95740542 -0.39058226 30.30342949 -0.421875 27.64941406 C-0.46737536 23.8416029 -0.52539449 20.03416042 -0.5859375 16.2265625 C-0.59748871 15.03382721 -0.60903992 13.84109192 -0.62094116 12.61221313 C-0.64081085 11.51122284 -0.66068054 10.41023254 -0.68115234 9.27587891 C-0.69447601 8.30325104 -0.70779968 7.33062317 -0.7215271 6.32852173 C-0.77960304 3.80830518 -0.77960304 3.80830518 -3 2 C-2.01 2 -1.02 2 0 2 C0 1.34 0 0.68 0 0 Z " fill="#61AB94" transform="translate(233,267)"/>
<path d="M0 0 C0.99 0 1.98 0 3 0 C3.495 1.485 3.495 1.485 4 3 C-17.53435115 10 -17.53435115 10 -26 10 C-25.97381592 10.70084717 -25.94763184 11.40169434 -25.9206543 12.1237793 C-25.8164646 15.3114565 -25.75160417 18.49877526 -25.6875 21.6875 C-25.6246582 23.34168945 -25.6246582 23.34168945 -25.56054688 25.02929688 C-25.42239207 34.1751447 -25.42239207 34.1751447 -28.39453125 37.26953125 C-31 39 -31 39 -33 39 C-33 38.01 -33 37.02 -33 36 C-32.01 35.34 -31.02 34.68 -30 34 C-29.60664381 31.4296725 -29.39467798 29.08256805 -29.3125 26.5 C-29.26234741 25.42492187 -29.26234741 25.42492187 -29.21118164 24.328125 C-28.97570153 18.88700543 -28.88218919 13.44547762 -29 8 C-28.34 8 -27.68 8 -27 8 C-26.67 7.01 -26.34 6.02 -26 5 C-25.28199219 5.18175781 -24.56398438 5.36351562 -23.82421875 5.55078125 C-20.82012614 6.02861064 -18.77787132 5.79634286 -15.8125 5.1875 C-14.389375 4.90326172 -14.389375 4.90326172 -12.9375 4.61328125 C-11.968125 4.41089844 -10.99875 4.20851563 -10 4 C-8.10428805 3.62438686 -6.20846279 3.24934493 -4.3125 2.875 C-2.87479827 2.58432935 -1.43721757 2.29305521 0 2 C0 1.34 0 0.68 0 0 Z " fill="#67AF6F" transform="translate(293,364)"/>
<path d="M0 0 C2.64 0.33 5.28 0.66 8 1 C7.67 2.32 7.34 3.64 7 5 C4.03 4.505 4.03 4.505 1 4 C1 4.99 1 5.98 1 7 C1.99 7.33 2.98 7.66 4 8 C3.835 9.0725 3.67 10.145 3.5 11.25 C2.93572641 15.71716593 2.98308634 20.1002646 3.03295898 24.59619141 C3.00111499 27.88485093 2.7843305 31.09905694 2.50390625 34.375 C1.90467218 42.38698142 1.88742109 50.34725598 1.9375 58.375 C1.94253411 59.8046859 1.94709357 61.23437355 1.95117188 62.6640625 C1.96200535 66.10941245 1.97916016 69.55469427 2 73 C1.01 73.495 1.01 73.495 0 74 C0 49.58 0 25.16 0 0 Z " fill="#3295CE" transform="translate(256,99)"/>
<path d="M0 0 C2 2 2 2 2.22705078 4.15478516 C2.21657715 5.02409668 2.20610352 5.8934082 2.1953125 6.7890625 C2.18886719 7.73007813 2.18242187 8.67109375 2.17578125 9.640625 C2.15902344 10.62546875 2.14226562 11.6103125 2.125 12.625 C2.11597656 13.61757812 2.10695313 14.61015625 2.09765625 15.6328125 C2.07404116 18.08878134 2.04110799 20.54427168 2 23 C2.86882812 23.13277344 3.73765625 23.26554687 4.6328125 23.40234375 C6.36144531 23.66724609 6.36144531 23.66724609 8.125 23.9375 C9.83042969 24.19853516 9.83042969 24.19853516 11.5703125 24.46484375 C14.71732669 24.95589266 17.85930783 25.47018719 21 26 C21 26.66 21 27.32 21 28 C22.98 28.66 24.96 29.32 27 30 C25 33 25 33 22.625 33.8125 C19.70744102 34.02089707 18.4404341 33.53656962 16 32 C16.33 31.34 16.66 30.68 17 30 C15.824375 29.71125 14.64875 29.4225 13.4375 29.125 C12.71046875 28.94066406 11.9834375 28.75632813 11.234375 28.56640625 C9.22102854 28.05602996 7.20444371 27.55846976 5.1875 27.0625 C2.03596973 26.01198991 0.94384165 25.57256195 -1 23 C-1.328125 20.72265625 -1.328125 20.72265625 -1.25 18.0625 C-1.22421875 17.09828125 -1.1984375 16.1340625 -1.171875 15.140625 C-0.89506271 10.08250959 -0.49270771 5.04145569 0 0 Z " fill="#50A2D3" transform="translate(265,102)"/>
<path d="M0 0 C1.32 0.99 2.64 1.98 4 3 C3.32482186 6.41560706 1.99865412 9.08903746 0.3125 12.125 C-0.22632813 13.09566406 -0.76515625 14.06632813 -1.3203125 15.06640625 C-2.86161168 17.7583032 -4.4476349 20.41428858 -6.0625 23.0625 C-9.0064744 27.90180356 -11.54642641 32.89743546 -14 38 C-15.45606519 33.47907032 -14.27032841 30.48351204 -13 26 C-12.01 26 -11.02 26 -10 26 C-9.938125 25.030625 -9.87625 24.06125 -9.8125 23.0625 C-9.13289912 18.17537016 -6.77409375 14.02718906 -4 10 C-3.34 9.67 -2.68 9.34 -2 9 C-1.67 8.01 -1.34 7.02 -1 6 C-0.34 6 0.32 6 1 6 C0.67 4.02 0.34 2.04 0 0 Z " fill="#3CA1BD" transform="translate(329,150)"/>
<path d="M0 0 C1.98 0 3.96 0 6 0 C5.67 0.99 5.34 1.98 5 3 C4.34 3 3.68 3 3 3 C3 3.66 3 4.32 3 5 C2.34 5 1.68 5 1 5 C1 5.66 1 6.32 1 7 C0.34 7 -0.32 7 -1 7 C-1 7.66 -1 8.32 -1 9 C-7.12014416 14.1510107 -14.60123753 18.94693329 -22 22 C-22.99 21.67 -23.98 21.34 -25 21 C-24.34 21 -23.68 21 -23 21 C-23 20.01 -23 19.02 -23 18 C-22.360625 17.896875 -21.72125 17.79375 -21.0625 17.6875 C-20.0415625 17.3471875 -20.0415625 17.3471875 -19 17 C-18.67 16.01 -18.34 15.02 -18 14 C-13.11730205 8.45747801 -13.11730205 8.45747801 -9 8 C-9 8.66 -9 9.32 -9 10 C-8.01 9.34 -7.02 8.68 -6 8 C-4.68 8 -3.36 8 -2 8 C-1.7834375 6.576875 -1.7834375 6.576875 -1.5625 5.125 C-1 2 -1 2 0 0 Z " fill="#5DB764" transform="translate(322,344)"/>
<path d="M0 0 C2 1 2 1 3 3 C2.01 3.33 1.02 3.66 0 4 C-1.20882096 6.00016466 -1.20882096 6.00016466 -2 8 C-2.66 7.34 -3.32 6.68 -4 6 C-8.52614177 6.37717848 -13.32769327 8.09965144 -16.375 11.5625 C-19.10243974 13.97523515 -22.44741395 14.53167415 -26 15 C-29.5 14.625 -29.5 14.625 -32 14 C-29.45033473 11.45033473 -26.61453211 10.51815668 -23.3125 9.25 C-21.96076353 8.72310235 -20.60920641 8.19574437 -19.2578125 7.66796875 C-18.55946289 7.39645996 -17.86111328 7.12495117 -17.14160156 6.84521484 C-14.99824586 5.9993077 -12.86930016 5.12416919 -10.7421875 4.23828125 C-10.06244873 3.95758789 -9.38270996 3.67689453 -8.68237305 3.38769531 C-7.36902744 2.84441932 -6.0579089 2.29572277 -4.74926758 1.74121094 C-3.18895355 1.10210225 -1.59619005 0.54333886 0 0 Z " fill="#5BAFB8" transform="translate(353,183)"/>
<path d="M0 0 C0.99 0.33 1.98 0.66 3 1 C3 1.66 3 2.32 3 3 C3.72960937 3.26167969 4.45921875 3.52335937 5.2109375 3.79296875 C8.04721994 5.02043552 10.16358519 6.4561487 12.625 8.3125 C17.77476653 12.01971145 23.15001092 14.58660146 29 17 C29 17.33 29 17.66 29 18 C26.66705225 18.04241723 24.33297433 18.04092937 22 18 C21.67 17.67 21.34 17.34 21 17 C19.865625 17.020625 18.73125 17.04125 17.5625 17.0625 C14 17 14 17 12 15 C10.5 13 10.5 13 9 11 C7.10244856 8.65026182 7.10244856 8.65026182 3.875 8.875 C2.92625 8.91625 1.9775 8.9575 1 9 C1.020625 8.071875 1.04125 7.14375 1.0625 6.1875 C1.15769604 2.97713989 1.15769604 2.97713989 0 0 Z " fill="#61B491" transform="translate(184,303)"/>
<path d="M0 0 C4.01636782 0.22734157 6.32292551 0.42709081 9.4375 3.0625 C10.2109375 4.0215625 10.2109375 4.0215625 11 5 C10.67 5.99 10.34 6.98 10 8 C9.34 8 8.68 8 8 8 C8 6.68 8 5.36 8 4 C5.36 3.67 2.72 3.34 0 3 C0 26.43 0 49.86 0 74 C-0.33 74 -0.66 74 -1 74 C-1.02312484 64.49925675 -1.0409158 54.99852312 -1.05181217 45.49775791 C-1.05704069 41.08662996 -1.06413777 36.6755212 -1.07543945 32.2644043 C-1.08626944 28.01098885 -1.09227707 23.75759191 -1.09487724 19.50416374 C-1.09673129 17.87778367 -1.10035152 16.25140466 -1.10573006 14.62503242 C-1.11294198 12.35489807 -1.11399088 10.08484115 -1.11352539 7.81469727 C-1.115746 6.52008072 -1.11796661 5.22546417 -1.12025452 3.89161682 C-1 1 -1 1 0 0 Z " fill="#61A3C4" transform="translate(256,96)"/>
<path d="M0 0 C0 2.31 0 4.62 0 7 C-0.33 6.01 -0.66 5.02 -1 4 C-2.65 4.33 -4.3 4.66 -6 5 C-6.33 6.65 -6.66 8.3 -7 10 C-6.34 10 -5.68 10 -5 10 C-5.350625 11.093125 -5.70125 12.18625 -6.0625 13.3125 C-7.33039454 16.90920373 -7.33039454 16.90920373 -6 20 C-5.01 20.33 -4.02 20.66 -3 21 C-3 23.31 -3 25.62 -3 28 C-4.98 28 -6.96 28 -9 28 C-9.24102751 6.41464748 -9.24102751 6.41464748 -8 2 C-4.77208445 -0.1519437 -3.71599191 -0.20086443 0 0 Z " fill="#2998DF" transform="translate(243,100)"/>
<path d="M0 0 C1.125 1.5 1.125 1.5 2 4 C0.68702223 13.19084442 -3.75891773 23.03675578 -11 29 C-11 26.36 -11 23.72 -11 21 C-10.34 21 -9.68 21 -9 21 C-8.67 19.68 -8.34 18.36 -8 17 C-7.01 17 -6.02 17 -5 17 C-3.99740493 13.99221479 -3.69685358 11.46179353 -3.4375 8.3125 C-3.35371094 7.31863281 -3.26992188 6.32476562 -3.18359375 5.30078125 C-3.12300781 4.54152344 -3.06242187 3.78226562 -3 3 C-2.34 3.33 -1.68 3.66 -1 4 C-0.67 2.68 -0.34 1.36 0 0 Z " fill="#81BF8A" transform="translate(339,315)"/>
<path d="M0 0 C0 4.62 0 9.24 0 14 C-0.33 14 -0.66 14 -1 14 C-1.33 11.36 -1.66 8.72 -2 6 C-2.825 6.33 -3.65 6.66 -4.5 7 C-7.95251448 7.98643271 -10.50254131 8.10569592 -14.03125 8.00390625 C-16.75375829 7.99850445 -19.33705126 8.46741025 -22 9 C-19.45527603 6.45527603 -17.0573953 5.75178444 -13.6875 4.5 C-11.99173828 3.86578125 -11.99173828 3.86578125 -10.26171875 3.21875 C-8.64716797 2.61546875 -8.64716797 2.61546875 -7 2 C-6.07832031 1.6184375 -5.15664063 1.236875 -4.20703125 0.84375 C-2 0 -2 0 0 0 Z " fill="#54B0B6" transform="translate(377,174)"/>
<path d="M0 0 C0.33 0 0.66 0 1 0 C1 5.94 1 11.88 1 18 C-5.66666667 18 -12.33333333 18 -19 18 C-19.33 15.69 -19.66 13.38 -20 11 C-19.31035156 11.19335938 -18.62070313 11.38671875 -17.91015625 11.5859375 C-11.96828666 13.23238147 -6.03029017 14.71485619 0 16 C0 10.72 0 5.44 0 0 Z " fill="#6EB48C" transform="translate(233,310)"/>
<path d="M0 0 C6.4994526 -0.30949774 12.11322614 -0.00879553 18 3 C20.25 5.5 20.25 5.5 22 8 C23.65661761 9.01656081 25.32111559 10.02065076 27 11 C27 11.66 27 12.32 27 13 C27.66 13 28.32 13 29 13 C28.67 13.66 28.34 14.32 28 15 C27.06800781 14.40832031 26.13601563 13.81664062 25.17578125 13.20703125 C17.01259807 8.11621056 9.15746291 4.07307777 0 1 C0 0.67 0 0.34 0 0 Z " fill="#40A1BD" transform="translate(276,175)"/>
<path d="M0 0 C0.99 0 1.98 0 3 0 C3.33 0.99 3.66 1.98 4 3 C-20.09966777 10.83388704 -20.09966777 10.83388704 -26 9 C-25.34 8.01 -24.68 7.02 -24 6 C-22.00055832 5.95274584 -19.99965315 5.96275384 -18 6 C-15.39656281 5.39442375 -12.87174125 4.74929319 -10.3125 4 C-3.3597973 2 -3.3597973 2 0 2 C0 1.34 0 0.68 0 0 Z " fill="#7CBE81" transform="translate(293,364)"/>
<path d="M0 0 C4.97306516 0.49730652 8.63799813 1.55302334 13 4 C11 6 11 6 9 7 C9.825 7.45375 10.65 7.9075 11.5 8.375 C12.325 8.91125 13.15 9.4475 14 10 C14 10.66 14 11.32 14 12 C14.66 12 15.32 12 16 12 C16.33 12.99 16.66 13.98 17 15 C12.75142387 13.55796504 9.72082695 11.44856463 6.25 8.625 C5.28578125 7.85414063 4.3215625 7.08328125 3.328125 6.2890625 C1.05968385 4.05868244 0.31138771 3.0997231 0 0 Z " fill="#83BE99" transform="translate(160,340)"/>
<path d="M0 0 C0.35729936 1.32711192 0.68325425 2.66262906 1 4 C1.309375 4.928125 1.61875 5.85625 1.9375 6.8125 C2 10 2 10 0.83203125 11.51953125 C0.04892578 12.31423828 0.04892578 12.31423828 -0.75 13.125 C-5.10534437 17.61201757 -5.8797577 23.01554772 -7 29 C-7.33 29 -7.66 29 -8 29 C-7.97080113 20.34253652 -6.65407874 6.65407874 0 0 Z " fill="#52A9D6" transform="translate(165,164)"/>
<path d="M0 0 C0.66 0.99 1.32 1.98 2 3 C1.360625 3.94875 0.72125 4.8975 0.0625 5.875 C-1.92620563 8.75287827 -1.92620563 8.75287827 -3 11 C-3.78375 10.79375 -4.5675 10.5875 -5.375 10.375 C-6.24125 10.25125 -7.1075 10.1275 -8 10 C-8.66 10.66 -9.32 11.32 -10 12 C-12.73434962 12.3063859 -15.38279821 12.5113336 -18.125 12.625 C-18.87910156 12.66367187 -19.63320313 12.70234375 -20.41015625 12.7421875 C-22.27303184 12.83651031 -24.13648255 12.91934662 -26 13 C-26 12.67 -26 12.34 -26 12 C-24.72125 11.7525 -23.4425 11.505 -22.125 11.25 C-16.10253018 9.90850198 -9.81369952 8.11407694 -4.83203125 4.37109375 C-3 3 -3 3 -1 3 C-0.67 2.01 -0.34 1.02 0 0 Z " fill="#78BC8E" transform="translate(286,316)"/>
<path d="M0 0 C1.46373047 0.02707031 1.46373047 0.02707031 2.95703125 0.0546875 C3.69308594 0.07789063 4.42914063 0.10109375 5.1875 0.125 C5.1875 0.785 5.1875 1.445 5.1875 2.125 C6.1775 1.795 7.1675 1.465 8.1875 1.125 C8.8475 2.445 9.5075 3.765 10.1875 5.125 C9.1975 5.785 8.2075 6.445 7.1875 7.125 C5.99517387 9.17503955 5.99517387 9.17503955 5.1875 11.125 C5.043125 9.990625 4.89875 8.85625 4.75 7.6875 C4.57578522 4.31722799 4.57578522 4.31722799 3.1875 3.125 C1.66821962 3.05320036 0.14582518 3.04107993 -1.375 3.0625 C-2.20128906 3.07152344 -3.02757812 3.08054688 -3.87890625 3.08984375 C-4.83603516 3.10724609 -4.83603516 3.10724609 -5.8125 3.125 C-5.8125 3.785 -5.8125 4.445 -5.8125 5.125 C-8.1225 5.455 -10.4325 5.785 -12.8125 6.125 C-11.8158435 3.40684591 -11.21902113 2.33112339 -8.59375 1 C-5.56215713 0.04624045 -3.16803227 -0.07633813 0 0 Z " fill="#389BC6" transform="translate(228.8125,169.875)"/>
<path d="M0 0 C-1 3 -1 3 -2.84765625 4.16796875 C-3.57855469 4.50441406 -4.30945313 4.84085937 -5.0625 5.1875 C-6.361875 5.785625 -7.66125 6.38375 -9 7 C-5.04 6.34 -1.08 5.68 3 5 C3 5.99 3 6.98 3 8 C-0.83724172 8.90413673 -4.37502274 9.10576898 -8.3125 9.0625 C-9.38113281 9.05347656 -10.44976562 9.04445313 -11.55078125 9.03515625 C-12.35902344 9.02355469 -13.16726563 9.01195312 -14 9 C-13.67 8.01 -13.34 7.02 -13 6 C-12.34 6 -11.68 6 -11 6 C-11 5.34 -11 4.68 -11 4 C-9.68 4 -8.36 4 -7 4 C-6.67 3.01 -6.34 2.02 -6 1 C-3.90006779 0.25486277 -2.22568901 0 0 0 Z " fill="#79C0A6" transform="translate(324,260)"/>
<path d="M0 0 C-0.66 0 -1.32 0 -2 0 C-2 0.66 -2 1.32 -2 2 C2.29 2 6.58 2 11 2 C9.68370166 4.63259667 8.75743271 4.99854434 6 6 C2.80078125 6.01171875 2.80078125 6.01171875 -0.6875 5.6875 C-2.42580078 5.53861328 -2.42580078 5.53861328 -4.19921875 5.38671875 C-7 5 -7 5 -8 4 C-8.04063832 2.33382885 -8.042721 0.66611905 -8 -1 C-3.375 -2.25 -3.375 -2.25 0 0 Z " fill="#51AE89" transform="translate(313,266)"/>
<path d="M0 0 C0.33 0 0.66 0 1 0 C1.33 10.56 1.66 21.12 2 32 C3.98 32 5.96 32 8 32 C8 32.99 8 33.98 8 35 C1.125 34.125 1.125 34.125 0 33 C-0.08843793 30.55169574 -0.11528752 28.13179401 -0.09765625 25.68359375 C-0.0962413 24.95253922 -0.09482635 24.22148468 -0.09336853 23.46827698 C-0.08775408 21.12464368 -0.07519922 18.78110461 -0.0625 16.4375 C-0.05748686 14.85221492 -0.05292363 13.26692834 -0.04882812 11.68164062 C-0.03777997 7.7877239 -0.02050572 3.89387795 0 0 Z " fill="#72ADA3" transform="translate(255,243)"/>
<path d="M0 0 C1.0209375 0.2165625 1.0209375 0.2165625 2.0625 0.4375 C8.15014236 2.01659643 8.15014236 2.01659643 14 1 C14.70074844 4.153368 15 6.72724974 15 10 C10.69235185 8.43358249 6.93828536 6.31663844 3 4 C3 3.34 3 2.68 3 2 C2.01 1.67 1.02 1.34 0 1 C0 0.67 0 0.34 0 0 Z " fill="#65B789" transform="translate(166,336)"/>
<path d="M0 0 C2.9719385 1.12451727 5.33440687 2.22293791 8 4 C8.6875 7.625 8.6875 7.625 9 11 C6 10 6 10 4 9 C4 8.34 4 7.68 4 7 C2.35 7 0.7 7 -1 7 C-1.04254356 5.00045254 -1.04080783 2.99958364 -1 1 C-0.67 0.67 -0.34 0.34 0 0 Z " fill="#2B9FCB" transform="translate(321,145)"/>
<path d="M0 0 C0.33 0 0.66 0 1 0 C3.37692898 12.35154167 3.17397278 22.61611933 1 35 C0.67 35 0.34 35 0 35 C0 23.45 0 11.9 0 0 Z " fill="#90CAAA" transform="translate(341,284)"/>
<path d="M0 0 C2 2 2 2 2.22705078 4.15478516 C2.21657715 5.02409668 2.20610352 5.8934082 2.1953125 6.7890625 C2.18886719 7.73007813 2.18242187 8.67109375 2.17578125 9.640625 C2.15902344 10.62546875 2.14226562 11.6103125 2.125 12.625 C2.11597656 13.61757812 2.10695313 14.61015625 2.09765625 15.6328125 C2.07404116 18.08878134 2.04110799 20.54427168 2 23 C2.66 23.33 3.32 23.66 4 24 C2.35 23.67 0.7 23.34 -1 23 C-1.13690844 15.27227893 -0.75166913 7.69118596 0 0 Z " fill="#4094C7" transform="translate(265,102)"/>
<path d="M0 0 C0.33 0 0.66 0 1 0 C1 6.6 1 13.2 1 20 C-3.95003075 18.0199877 -6.13939157 16.41170047 -10 13 C-9.34 12.34 -8.68 11.68 -8 11 C-6 12.375 -6 12.375 -4 14 C-4 14.66 -4 15.32 -4 16 C-3.34 15.67 -2.68 15.34 -2 15 C-1.52425562 12.45975996 -1.15992453 9.99948536 -0.875 7.4375 C-0.78863281 6.72658203 -0.70226562 6.01566406 -0.61328125 5.28320312 C-0.40065217 3.52310688 -0.19927303 1.76165836 0 0 Z " fill="#73B4A2" transform="translate(372,224)"/>
<path d="M0 0 C2.31 0.66 4.62 1.32 7 2 C7 2.66 7 3.32 7 4 C6.01 4.495 6.01 4.495 5 5 C3.82953565 8.51139306 4.0100187 11.28405549 4.16015625 14.94140625 C4 17 4 17 2 19 C1.67 14.38 1.34 9.76 1 5 C-0.134375 4.87625 -1.26875 4.7525 -2.4375 4.625 C-3.613125 4.41875 -4.78875 4.2125 -6 4 C-6.33 3.34 -6.66 2.68 -7 2 C-6.21625 2.04125 -5.4325 2.0825 -4.625 2.125 C-1.83883881 2.28728734 -1.83883881 2.28728734 0 0 Z " fill="#47AA98" transform="translate(232,264)"/>
<path d="M0 0 C1.98 0 3.96 0 6 0 C5.67 0.99 5.34 1.98 5 3 C4.34 3 3.68 3 3 3 C3 3.66 3 4.32 3 5 C2.34 5 1.68 5 1 5 C1 5.66 1 6.32 1 7 C0.34 7 -0.32 7 -1 7 C-1 7.66 -1 8.32 -1 9 C-2.75 10.5078125 -2.75 10.5078125 -5 12.125 C-5.7425 12.66382813 -6.485 13.20265625 -7.25 13.7578125 C-7.8275 14.16773438 -8.405 14.57765625 -9 15 C-9.66 14.67 -10.32 14.34 -11 14 C-11 13.01 -11 12.02 -11 11 C-8.02588876 9.76078698 -5.14737182 8.69941596 -2 8 C-1.7834375 6.576875 -1.7834375 6.576875 -1.5625 5.125 C-1 2 -1 2 0 0 Z " fill="#8AC593" transform="translate(322,344)"/>
<path d="M0 0 C2.31 0 4.62 0 7 0 C6.44699219 0.268125 5.89398438 0.53625 5.32421875 0.8125 C2.76220624 2.12149462 0.28948195 3.53649516 -2.1875 5 C-3.06792969 5.515625 -3.94835937 6.03125 -4.85546875 6.5625 C-7.11713325 7.82264044 -7.11713325 7.82264044 -8 10 C-8.66 10 -9.32 10 -10 10 C-10.66 11.32 -11.32 12.64 -12 14 C-10.46794151 5.06299213 -10.46794151 5.06299213 -7.1875 2.6875 C-4.68810383 1.90197549 -2.60506718 1.85527405 0 2 C0 1.34 0 0.68 0 0 Z " fill="#4FA4C8" transform="translate(223,173)"/>
<path d="M0 0 C-0.33 0.99 -0.66 1.98 -1 3 C-1.69867188 3.04898438 -2.39734375 3.09796875 -3.1171875 3.1484375 C-4.02726563 3.22320312 -4.93734375 3.29796875 -5.875 3.375 C-6.77992188 3.44460937 -7.68484375 3.51421875 -8.6171875 3.5859375 C-11.17941903 3.79568132 -11.17941903 3.79568132 -13 6 C-13.99 6.33 -14.98 6.66 -16 7 C-15.67 8.65 -15.34 10.3 -15 12 C-16.32 12 -17.64 12 -19 12 C-18.9375 8.75 -18.9375 8.75 -18 5 C-12.90590425 0.35901789 -6.60436002 -0.15358977 0 0 Z " fill="#2796DF" transform="translate(214,132)"/>
<path d="M0 0 C1.32 0.33 2.64 0.66 4 1 C4 3.31 4 5.62 4 8 C3.01 8.495 3.01 8.495 2 9 C1.88861841 14.45769811 2.08342019 19.61509359 3 25 C0.3084483 21.93281075 -0.3672868 20.07834493 -0.29296875 16.015625 C-0.28330078 15.08105469 -0.27363281 14.14648438 -0.26367188 13.18359375 C-0.23853516 12.21550781 -0.21339844 11.24742187 -0.1875 10.25 C-0.17396484 9.26644531 -0.16042969 8.28289062 -0.14648438 7.26953125 C-0.11118726 4.84579585 -0.06188054 2.42317855 0 0 Z " fill="#64B26A" transform="translate(234,374)"/>
<path d="M0 0 C10.53922138 -0.27256607 20.57904782 0.46629876 31 2 C31 2.33 31 2.66 31 3 C25.06 3.495 25.06 3.495 19 4 C19 3.34 19 2.68 19 2 C18.49984375 2.18433594 17.9996875 2.36867188 17.484375 2.55859375 C13.98316988 3.18066321 10.72598088 2.59145361 7.25 2.0625 C6.55261719 1.96259766 5.85523438 1.86269531 5.13671875 1.75976562 C3.42348274 1.51334127 1.71159275 1.25759045 0 1 C0 0.67 0 0.34 0 0 Z " fill="#65B3A9" transform="translate(148,279)"/>
<path d="M0 0 C0.66 0.33 1.32 0.66 2 1 C2 4.3 2 7.6 2 11 C2.66 11 3.32 11 4 11 C5.26305335 16.07476794 6.27036084 20.72796354 6 26 C2.86671803 22.86671803 2.41189132 18.9002673 1.3125 14.6875 C1.07466797 13.83220703 0.83683594 12.97691406 0.59179688 12.09570312 C-1.46538881 4.30735498 -1.46538881 4.30735498 0 0 Z " fill="#82BEB5" transform="translate(126,282)"/>
<path d="M0 0 C2.64 0.33 5.28 0.66 8 1 C8.25 3.25 8.25 3.25 8 6 C5.7522146 8.79035429 4.42269984 9.85910005 1 11 C0.67 11.66 0.34 12.32 0 13 C-0.66 12.67 -1.32 12.34 -2 12 C-0.625 9.5 -0.625 9.5 1 7 C1.66 7 2.32 7 3 7 C3.43386092 3.12202338 3.43386092 3.12202338 1.5 1.25 C1.005 0.8375 0.51 0.425 0 0 Z " fill="#62B6AF" transform="translate(325,209)"/>
<path d="M0 0 C0.99 0 1.98 0 3 0 C2.67 1.32 2.34 2.64 2 4 C1.34 4 0.68 4 0 4 C0 4.66 0 5.32 0 6 C-1.73548169 7.44526736 -3.53975963 8.8087222 -5.375 10.125 C-6.37273437 10.84945313 -7.37046875 11.57390625 -8.3984375 12.3203125 C-11 14 -11 14 -13 14 C-12.67 12.68 -12.34 11.36 -12 10 C-10.68 10 -9.36 10 -8 10 C-7.938125 9.401875 -7.87625 8.80375 -7.8125 8.1875 C-6.65729457 5.07733153 -4.93122813 4.39582292 -2 3 C-1.01 3 -0.02 3 1 3 C0.67 2.01 0.34 1.02 0 0 Z " fill="#77B9A3" transform="translate(338,246)"/>
<path d="M0 0 C0.99 0.33 1.98 0.66 3 1 C1.75 3.9375 1.75 3.9375 0 7 C-1.9375 7.625 -1.9375 7.625 -4 8 C-6.22977996 9.97901574 -6.22977996 9.97901574 -8 12 C-8.33 11.01 -8.66 10.02 -9 9 C-7.25 6.3125 -7.25 6.3125 -5 4 C-4.01 4 -3.02 4 -2 4 C-1.34 2.68 -0.68 1.36 0 0 Z " fill="#2897E0" transform="translate(189,140)"/>
<path d="M0 0 C0.99 0.33 1.98 0.66 3 1 C2.835 2.0725 2.67 3.145 2.5 4.25 C2.0598883 7.73421766 1.96235154 11.11428107 2 14.625 C2.06982014 21.44991874 1.56315716 28.2018886 1 35 C0.67 35 0.34 35 0 35 C0 23.45 0 11.9 0 0 Z " fill="#2195E1" transform="translate(257,106)"/>
<path d="M0 0 C0.66 0 1.32 0 2 0 C2 8.25 2 16.5 2 25 C2.66 25.33 3.32 25.66 4 26 C4 26.66 4 27.32 4 28 C3.34 28 2.68 28 2 28 C1.67 28.99 1.34 29.98 1 31 C0.67 31 0.34 31 0 31 C0 20.77 0 10.54 0 0 Z " fill="#52AD81" transform="translate(234,296)"/>
<path d="M0 0 C0.9075 0.309375 1.815 0.61875 2.75 0.9375 C0.75 3.9375 0.75 3.9375 -1.625 4.75 C-4.54255898 4.95839707 -5.8095659 4.47406962 -8.25 2.9375 C-7.92 2.2775 -7.59 1.6175 -7.25 0.9375 C-7.91 0.2775 -8.57 -0.3825 -9.25 -1.0625 C-5.96743794 -2.70378103 -3.38842062 -1.10775289 0 0 Z " fill="#2C95DA" transform="translate(289.25,131.0625)"/>
<path d="M0 0 C0.99 2.64 1.98 5.28 3 8 C2.34 8 1.68 8 1 8 C1 7.34 1 6.68 1 6 C-0.32 5.34 -1.64 4.68 -3 4 C-3 3.34 -3 2.68 -3 2 C-6.37503669 3.1858237 -8.64722731 4.27573689 -11 7 C-10.67 5.02 -10.34 3.04 -10 1 C-6.59437148 0.22157062 -3.49234244 -0.09978121 0 0 Z " fill="#64B38D" transform="translate(163,328)"/>
<path d="M0 0 C1.65 0.33 3.3 0.66 5 1 C1.6189962 5.13621084 -1.66590534 8.81316569 -6 12 C-5.34 9.69 -4.68 7.38 -4 5 C-3.34 5 -2.68 5 -2 5 C-1.34 3.35 -0.68 1.7 0 0 Z " fill="#72C0AD" transform="translate(188,290)"/>
<path d="M0 0 C0 3.88091967 -1.65317733 6.39673296 -3.5 9.6875 C-3.83386719 10.29400391 -4.16773438 10.90050781 -4.51171875 11.52539062 C-5.335537 13.02003231 -6.16703451 14.51043671 -7 16 C-8.45606519 11.47907032 -7.27032841 8.48351204 -6 4 C-5.01 4 -4.02 4 -3 4 C-3 3.01 -3 2.02 -3 1 C-2.01 0.67 -1.02 0.34 0 0 Z " fill="#69B2C4" transform="translate(322,172)"/>
<path d="M0 0 C3.62174279 3.62174279 4.87956218 9.03284894 5.1875 14.0625 C5.125625 14.701875 5.06375 15.34125 5 16 C5.66 16 6.32 16 7 16 C7.33 17.98 7.66 19.96 8 22 C4.7696253 20.38481265 4.14584297 17.02001037 2.875 13.8125 C2.59785156 13.15185547 2.32070312 12.49121094 2.03515625 11.81054688 C0.39621656 7.72127124 -0.32048643 4.47984292 0 0 Z " fill="#6DB5C4" transform="translate(158,209)"/>
<path d="M0 0 C1.32 1.32 2.64 2.64 4 4 C2.875 6.5 2.875 6.5 1 9 C-2.1875 9.3125 -2.1875 9.3125 -5 9 C-4.0409375 7.88625 -4.0409375 7.88625 -3.0625 6.75 C-1.21666593 4.2888879 -0.43930826 2.96533074 0 0 Z " fill="#56B06F" transform="translate(182,344)"/>
<path d="M0 0 C1.5168962 2.02252826 2.05773905 3.44875549 1.79296875 5.9765625 C0.52403846 11.65064103 0.52403846 11.65064103 -3 14 C-3 10.37 -3 6.74 -3 3 C-2.01 3.495 -2.01 3.495 -1 4 C-0.67 2.68 -0.34 1.36 0 0 Z " fill="#80BE89" transform="translate(339,315)"/>
<path d="M0 0 C0.99 0 1.98 0 3 0 C3.39180108 1.57925975 3.76280736 3.16368794 4.125 4.75 C4.33382812 5.63171875 4.54265625 6.5134375 4.7578125 7.421875 C5.03088304 10.32875493 4.53508028 11.56661348 3 14 C2.49307308 12.4188708 1.99473557 10.83498617 1.5 9.25 C1.2215625 8.36828125 0.943125 7.4865625 0.65625 6.578125 C0 4 0 4 0 0 Z " fill="#70B9A2" transform="translate(132,308)"/>
<path d="M0 0 C2.80924244 2.019143 3.74304747 4.26204098 5 7.4375 C4.67 8.0975 4.34 8.7575 4 9.4375 C1.525 8.4475 1.525 8.4475 -1 7.4375 C-1 6.1175 -1 4.7975 -1 3.4375 C-2.92022703 1.66340192 -2.92022703 1.66340192 -5 0.4375 C-2 -0.5625 -2 -0.5625 0 0 Z " fill="#7BBEA1" transform="translate(332,263.5625)"/>
<path d="M0 0 C5.15464734 0.48324819 8.81550319 3.18610761 13 6 C12.34 6.66 11.68 7.32 11 8 C8.69 7.01 6.38 6.02 4 5 C4 4.34 4 3.68 4 3 C2.68 2.67 1.36 2.34 0 2 C0 1.34 0 0.68 0 0 Z " fill="#5DB0CF" transform="translate(309,138)"/>
<path d="M0 0 C0.66 0.33 1.32 0.66 2 1 C0.54462432 1.83848804 -0.91440373 2.67063934 -2.375 3.5 C-3.59316406 4.19609375 -3.59316406 4.19609375 -4.8359375 4.90625 C-7 6 -7 6 -9 6 C-9 6.66 -9 7.32 -9 8 C-10.65 8.66 -12.3 9.32 -14 10 C-14.66 9.34 -15.32 8.68 -16 8 C-13.37964982 6.63610475 -10.75443001 5.28367827 -8.125 3.9375 C-7.37863281 3.54755859 -6.63226563 3.15761719 -5.86328125 2.75585938 C-4.79013672 2.20961914 -4.79013672 2.20961914 -3.6953125 1.65234375 C-3.03547363 1.31195068 -2.37563477 0.97155762 -1.69580078 0.62084961 C-1.13618652 0.41596924 -0.57657227 0.21108887 0 0 Z " fill="#68B3D6" transform="translate(205,131)"/>
<path d="M0 0 C5.60643705 1.64455487 10.39493445 3.33956328 15 7 C15 7.66 15 8.32 15 9 C2.23529412 4.47058824 2.23529412 4.47058824 0 0 Z " fill="#6AB6B8" transform="translate(184,250)"/>
<path d="M0 0 C0.99 0 1.98 0 3 0 C3 0.66 3 1.32 3 2 C3.66 2 4.32 2 5 2 C6.5625 4.8125 6.5625 4.8125 8 8 C7.67 8.99 7.34 9.98 7 11 C5.82750647 9.54634731 4.66216184 8.08692581 3.5 6.625 C2.52546875 5.40683594 2.52546875 5.40683594 1.53125 4.1640625 C0 2 0 2 0 0 Z " fill="#69B7C3" transform="translate(166,231)"/>
<path d="M0 0 C0 3.10551666 -0.5393715 4.35261084 -2 7 C-2.66 7 -3.32 7 -4 7 C-4.66 8.32 -5.32 9.64 -6 11 C-7.65 11 -9.3 11 -11 11 C-7.33333333 7.33333333 -3.66666667 3.66666667 0 0 Z " fill="#6ABCB0" transform="translate(318,226)"/>
<path d="M0 0 C1.98 0.495 1.98 0.495 4 1 C3.67 1.99 3.34 2.98 3 4 C5.475 4.99 5.475 4.99 8 6 C7.34 6.66 6.68 7.32 6 8 C3.5 7.9375 3.5 7.9375 1 7 C-0.375 4.5625 -0.375 4.5625 -1 2 C-0.67 1.34 -0.34 0.68 0 0 Z " fill="#39A5A5" transform="translate(324,202)"/>
<path d="M0 0 C-0.33 0.99 -0.66 1.98 -1 3 C-2.32 3 -3.64 3 -5 3 C-5 3.66 -5 4.32 -5 5 C-7.31 5.33 -9.62 5.66 -12 6 C-10.9802352 3.21882328 -10.33608762 2.18166898 -7.6875 0.75 C-4.98166314 -0.00511726 -2.79292118 -0.1595955 0 0 Z " fill="#2E9CD0" transform="translate(228,170)"/>
<path d="M0 0 C2.31 0 4.62 0 7 0 C7 3.3 7 6.6 7 10 C6.67 10 6.34 10 6 10 C6 7.69 6 5.38 6 3 C3.36 3.66 0.72 4.32 -2 5 C-1.34 3.35 -0.68 1.7 0 0 Z " fill="#4096CA" transform="translate(237,97)"/>
<path d="M0 0 C1.79158489 -0.02696365 3.58328473 -0.04637917 5.375 -0.0625 C6.37273437 -0.07410156 7.37046875 -0.08570313 8.3984375 -0.09765625 C11 0 11 0 13 1 C12.67 1.99 12.34 2.98 12 4 C10.37399059 3.9129995 8.74910322 3.8048219 7.125 3.6875 C6.22007812 3.62949219 5.31515625 3.57148438 4.3828125 3.51171875 C2 3 2 3 0 0 Z " fill="#64B27F" transform="translate(166,345)"/>
<path d="M0 0 C0.33 0 0.66 0 1 0 C1.185625 1.2065625 1.185625 1.2065625 1.375 2.4375 C1.58125 3.283125 1.7875 4.12875 2 5 C2.66 5.33 3.32 5.66 4 6 C3.67 7.32 3.34 8.64 3 10 C3.66 10 4.32 10 5 10 C5 11.65 5 13.3 5 15 C4.34 15 3.68 15 3 15 C2.67 13.02 2.34 11.04 2 9 C1.34 9 0.68 9 0 9 C-1.125 2.25 -1.125 2.25 0 0 Z " fill="#2F9DB4" transform="translate(163,216)"/>
<path d="M0 0 C3.63 0.33 7.26 0.66 11 1 C11.66 2.65 12.32 4.3 13 6 C12.01 6 11.02 6 10 6 C10 5.34 10 4.68 10 4 C6.7 3.34 3.4 2.68 0 2 C0 1.34 0 0.68 0 0 Z " fill="#3D9FD1" transform="translate(297,135)"/>
<path d="M0 0 C6.4 0.49230769 6.4 0.49230769 9.4375 3.0625 C10.2109375 4.0215625 10.2109375 4.0215625 11 5 C10.67 5.99 10.34 6.98 10 8 C9.34 8 8.68 8 8 8 C8 6.68 8 5.36 8 4 C5.36 3.67 2.72 3.34 0 3 C0 2.01 0 1.02 0 0 Z " fill="#5AA4D2" transform="translate(256,96)"/>
<path d="M0 0 C7.35423405 0.27037625 12.62151248 1.26918654 19 5 C14.82893888 6.39035371 11.81793141 4.90230806 7.8125 3.5625 C6.68811523 3.19801758 6.68811523 3.19801758 5.54101562 2.82617188 C3.69142499 2.22534944 1.84535673 1.61370322 0 1 C0 0.67 0 0.34 0 0 Z " fill="#79C4BA" transform="translate(209,263)"/>
<path d="M0 0 C-0.309375 0.5775 -0.61875 1.155 -0.9375 1.75 C-1.92583364 3.84294184 -2.5168613 5.74535275 -3 8 C-5.5 6.6875 -5.5 6.6875 -8 5 C-8 4.01 -8 3.02 -8 2 C-5.09399739 0.74335022 -3.20395416 0 0 0 Z " fill="#6EB5B7" transform="translate(321,197)"/>
<path d="M0 0 C0.99 0.33 1.98 0.66 3 1 C3 4.96 3 8.92 3 13 C2.34 13 1.68 13 1 13 C0.63901937 11.02206479 0.28638652 9.04260427 -0.0625 7.0625 C-0.25972656 5.96035156 -0.45695313 4.85820312 -0.66015625 3.72265625 C-0.77230469 2.82417969 -0.88445312 1.92570312 -1 1 C-0.67 0.67 -0.34 0.34 0 0 Z " fill="#43AA94" transform="translate(131,295)"/>
<path d="M0 0 C0 4.62 0 9.24 0 14 C-0.33 14 -0.66 14 -1 14 C-1.33 10.37 -1.66 6.74 -2 3 C-3.65 3 -5.3 3 -7 3 C-6.67 2.34 -6.34 1.68 -6 1 C-3.911361 0.32624548 -2.19636905 0 0 0 Z " fill="#72B0B4" transform="translate(377,174)"/>
<path d="M0 0 C1.32 0.99 2.64 1.98 4 3 C3.29445932 6.66881155 1.72264494 9.70450534 0 13 C-0.33 13 -0.66 13 -1 13 C-1 10.69 -1 8.38 -1 6 C-0.34 6 0.32 6 1 6 C0.67 4.02 0.34 2.04 0 0 Z " fill="#70B2C8" transform="translate(329,150)"/>
<path d="M0 0 C0.90492188 0.10828125 0.90492188 0.10828125 1.828125 0.21875 C3.02695313 0.35796875 3.02695313 0.35796875 4.25 0.5 C5.03890625 0.5928125 5.8278125 0.685625 6.640625 0.78125 C9.26890397 1.06154619 9.26890397 1.06154619 13 1 C13 1.66 13 2.32 13 3 C8.37078475 4.0161692 4.65537393 3.83796731 0 3 C0 2.01 0 1.02 0 0 Z " fill="#62B56B" transform="translate(224,369)"/>
<path d="M0 0 C0.66 0 1.32 0 2 0 C1.74476126 1.62752231 1.47025506 3.25203196 1.1875 4.875 C1.03667969 5.77992188 0.88585937 6.68484375 0.73046875 7.6171875 C0 10 0 10 -3 12 C-3 9.36 -3 6.72 -3 4 C-2.34 4 -1.68 4 -1 4 C-0.67 2.68 -0.34 1.36 0 0 Z " fill="#6FBB76" transform="translate(331,332)"/>
<path d="M0 0 C3 1 3 1 4.75 3.375 C6 6 6 6 5 9 C4.34 9 3.68 9 3 9 C2.67 7.02 2.34 5.04 2 3 C1.34 3 0.68 3 0 3 C0 2.01 0 1.02 0 0 Z M5 0 C5 3 5 3 5 3 Z " fill="#49AC84" transform="translate(136,320)"/>
<path d="M0 0 C3.14958831 3.42346555 3.56179109 6.44262737 4 11 C3.01 11 2.02 11 1 11 C1 10.34 1 9.68 1 9 C0.34 8.67 -0.32 8.34 -1 8 C-0.67 5.36 -0.34 2.72 0 0 Z " fill="#74BC9B" transform="translate(337,273)"/>
<path d="M0 0 C0.33 0 0.66 0 1 0 C1 3.63 1 7.26 1 11 C2.98 11 4.96 11 7 11 C7 11.99 7 12.98 7 14 C4.69 13.67 2.38 13.34 0 13 C0 8.71 0 4.42 0 0 Z " fill="#68B39E" transform="translate(256,264)"/>
<path d="M0 0 C2 1 2 1 3 3 C2.01 3.33 1.02 3.66 0 4 C-1.20882096 6.00016466 -1.20882096 6.00016466 -2 8 C-3.5 6.6875 -3.5 6.6875 -5 5 C-5 4.01 -5 3.02 -5 2 C-2.625 0.9375 -2.625 0.9375 0 0 Z " fill="#51AFB5" transform="translate(353,183)"/>
<path d="M0 0 C0.625 1.8125 0.625 1.8125 1 4 C0.01 5.485 0.01 5.485 -1 7 C-1.38499891 8.65549531 -1.72793135 10.3222433 -2 12 C-2.66 12 -3.32 12 -4 12 C-4.33 12.99 -4.66 13.98 -5 15 C-5.33 14.34 -5.66 13.68 -6 13 C-5.0390625 10.21484375 -5.0390625 10.21484375 -3.625 6.9375 C-3.16351563 5.85339844 -2.70203125 4.76929688 -2.2265625 3.65234375 C-1 1 -1 1 0 0 Z " fill="#67B3D6" transform="translate(165,164)"/>
<path d="M0 0 C0.66 0.33 1.32 0.66 2 1 C1.01 2.485 1.01 2.485 0 4 C-0.99 4 -1.98 4 -3 4 C-3.268125 4.598125 -3.53625 5.19625 -3.8125 5.8125 C-4.98493467 7.97224808 -6.19369282 9.35790256 -8 11 C-8 10.34 -8 9.68 -8 9 C-8.66 8.67 -9.32 8.34 -10 8 C-6.7 5.36 -3.4 2.72 0 0 Z " fill="#70B5D7" transform="translate(187,140)"/>
<path d="M0 0 C3.96 0.33 7.92 0.66 12 1 C12 1.33 12 1.66 12 2 C10.41913952 2.36504603 8.83516093 2.71660506 7.25 3.0625 C6.36828125 3.25972656 5.4865625 3.45695312 4.578125 3.66015625 C2.01320972 3.99825872 0.42908361 3.81158635 -2 3 C-1.34 2.01 -0.68 1.02 0 0 Z " fill="#87C997" transform="translate(269,370)"/>
<path d="M0 0 C3.3 0.33 6.6 0.66 10 1 C9.01 2.485 9.01 2.485 8 4 C4.375 4.1875 4.375 4.1875 1 4 C0.67 2.68 0.34 1.36 0 0 Z " fill="#5AB66E" transform="translate(196,361)"/>
<path d="M0 0 C1.5625 1.0625 1.5625 1.0625 3 3 C2.6875 6.6875 2.6875 6.6875 2 10 C1.01 10 0.02 10 -1 10 C-1.02689216 8.52093108 -1.04634621 7.04172517 -1.0625 5.5625 C-1.07410156 4.73878906 -1.08570313 3.91507812 -1.09765625 3.06640625 C-1 1 -1 1 0 0 Z " fill="#51AE75" transform="translate(292,302)"/>
<path d="M0 0 C3.125 0.25 3.125 0.25 5 1.75 C5.37125 2.245 5.7425 2.74 6.125 3.25 C5.795 4.24 5.465 5.23 5.125 6.25 C4.526875 5.734375 3.92875 5.21875 3.3125 4.6875 C2.590625 4.213125 1.86875 3.73875 1.125 3.25 C-1.9495356 4.0263932 -1.9495356 4.0263932 -3.875 6.25 C-3.917721 4.58388095 -3.91563832 2.91617115 -3.875 1.25 C-2.875 0.25 -2.875 0.25 0 0 Z " fill="#7ABFAD" transform="translate(355.875,229.75)"/>
<path d="M0 0 C1.41623216 -0.05447047 2.83308191 -0.09300508 4.25 -0.125 C5.03890625 -0.14820313 5.8278125 -0.17140625 6.640625 -0.1953125 C9.20731941 0.0171622 10.7916067 0.71345895 13 2 C12.67 2.99 12.34 3.98 12 5 C8 3.66666667 4 2.33333333 0 1 C0 0.67 0 0.34 0 0 Z " fill="#66B1C9" transform="translate(276,175)"/>
<path d="M0 0 C3.3 0 6.6 0 10 0 C10.33 1.65 10.66 3.3 11 5 C9.53932801 4.54917531 8.08151968 4.08906463 6.625 3.625 C5.81289062 3.36976563 5.00078125 3.11453125 4.1640625 2.8515625 C2 2 2 2 0 0 Z " fill="#80C089" transform="translate(186,360)"/>
<path d="M0 0 C0.99 0.33 1.98 0.66 3 1 C3.66 0.67 4.32 0.34 5 0 C5.33 0.99 5.66 1.98 6 3 C5.01 4.485 5.01 4.485 4 6 C-0.875 4.25 -0.875 4.25 -2 2 C-1.34 2 -0.68 2 0 2 C0 1.34 0 0.68 0 0 Z " fill="#69B0C2" transform="translate(307,188)"/>
<path d="M0 0 C3.94120709 0.56302958 6.7508723 1.6791945 10 4 C10 4.66 10 5.32 10 6 C10.66 6 11.32 6 12 6 C11.67 6.66 11.34 7.32 11 8 C9.16399255 6.85845641 7.33125195 5.71165684 5.5 4.5625 C4.4790625 3.92441406 3.458125 3.28632813 2.40625 2.62890625 C1.6121875 2.09136719 0.818125 1.55382812 0 1 C0 0.67 0 0.34 0 0 Z " fill="#6CB3C6" transform="translate(293,182)"/>
<path d="M0 0 C1.2065625 0.0309375 1.2065625 0.0309375 2.4375 0.0625 C2.4375 2.3725 2.4375 4.6825 2.4375 7.0625 C2.1075 6.0725 1.7775 5.0825 1.4375 4.0625 C0.1175 4.3925 -1.2025 4.7225 -2.5625 5.0625 C-3.125 3.125 -3.125 3.125 -3.5625 1.0625 C-2.5625 0.0625 -2.5625 0.0625 0 0 Z " fill="#2498E7" transform="translate(240.5625,99.9375)"/>
<path d="M0 0 C5.625 -0.25 5.625 -0.25 9 2 C9.6875 4.125 9.6875 4.125 10 6 C6.00499382 4.6302836 3.19990508 2.74277578 0 0 Z " fill="#7EBD98" transform="translate(171,340)"/>
<path d="M0 0 C1.98 0 3.96 0 6 0 C5.67 1.32 5.34 2.64 5 4 C5.66 4 6.32 4 7 4 C6.67 4.99 6.34 5.98 6 7 C6 6.34 6 5.68 6 5 C4.35 5 2.7 5 1 5 C0.67 3.35 0.34 1.7 0 0 Z " fill="#49AD8D" transform="translate(177,298)"/>
<path d="M0 0 C1.65 0 3.3 0 5 0 C5.25 2.25 5.25 2.25 5 5 C3 7.3125 3 7.3125 1 9 C1.020625 7.88625 1.04125 6.7725 1.0625 5.625 C1.26380718 2.16784079 1.26380718 2.16784079 0 0 Z " fill="#289AD0" transform="translate(208,177)"/>
<path d="M0 0 C2.97 0.495 2.97 0.495 6 1 C5.67 2.32 5.34 3.64 5 5 C2.03 4.505 2.03 4.505 -1 4 C-0.67 2.68 -0.34 1.36 0 0 Z " fill="#2698E5" transform="translate(258,99)"/>
<path d="M0 0 C0 0.66 0 1.32 0 2 C-3.67410785 3.17571451 -7.16929183 3.07366746 -11 3 C-8.21756596 -1.17365106 -4.53441502 -0.22300402 0 0 Z " fill="#46AA98" transform="translate(179,282)"/>
<path d="M0 0 C-0.33 1.65 -0.66 3.3 -1 5 C-2.65 5 -4.3 5 -6 5 C-6 3.35 -6 1.7 -6 0 C-3.50907189 -1.24546405 -2.58919267 -0.7767578 0 0 Z " fill="#3DA3B7" transform="translate(216,210)"/>
<path d="M0 0 C1.09054687 0.02320313 2.18109375 0.04640625 3.3046875 0.0703125 C4.40039062 0.08835938 5.49609375 0.10640625 6.625 0.125 C7.46804688 0.14820313 8.31109375 0.17140625 9.1796875 0.1953125 C5.17108499 2.86771417 2.64663611 3.38906043 -2.1328125 2.7578125 C-3.0196875 2.5721875 -3.9065625 2.3865625 -4.8203125 2.1953125 C-2.8203125 0.1953125 -2.8203125 0.1953125 0 0 Z " fill="#51B0B5" transform="translate(325.8203125,194.8046875)"/>
<path d="M0 0 C0.33 0.99 0.66 1.98 1 3 C1.66 3 2.32 3 3 3 C4.0326802 5.78823655 4.04509293 6.8677274 3.0625 9.75 C2.711875 10.4925 2.36125 11.235 2 12 C-0.60018816 8.09971775 -0.15085514 4.52565431 0 0 Z " fill="#6AB78F" transform="translate(140,333)"/>
<path d="M0 0 C0.33 0 0.66 0 1 0 C1.05416188 1.60379341 1.09286638 3.20811406 1.125 4.8125 C1.14820313 5.70582031 1.17140625 6.59914063 1.1953125 7.51953125 C1 10 1 10 -1 13 C-1.66 13 -2.32 13 -3 13 C-3 11.68 -3 10.36 -3 9 C-2.34 9 -1.68 9 -1 9 C-0.67 6.03 -0.34 3.06 0 0 Z " fill="#58B373" transform="translate(341,295)"/>
<path d="M0 0 C0.33 1.32 0.66 2.64 1 4 C3.64 4.33 6.28 4.66 9 5 C6.08235 6.9451 4.37462715 7.45276317 1 8 C0.67 5.36 0.34 2.72 0 0 Z " fill="#5DB1B1" transform="translate(264,224)"/>
<path d="M0 0 C0.66 0 1.32 0 2 0 C1.45912682 3.78611227 -0.11722332 5.55400767 -3 8 C-3.66 8 -4.32 8 -5 8 C-5 7.01 -5 6.02 -5 5 C-3.35 4.34 -1.7 3.68 0 3 C0 2.01 0 1.02 0 0 Z " fill="#8AC290" transform="translate(265,395)"/>
<path d="M0 0 C0.66 0 1.32 0 2 0 C2 2.97 2 5.94 2 9 C1.01 9.33 0.02 9.66 -1 10 C-2.46726798 6.18510326 -1.43336419 3.70988378 0 0 Z " fill="#59ADAC" transform="translate(374,189)"/>
<path d="M0 0 C2.31 0 4.62 0 7 0 C3 2 -1 4 -5 6 C-5 4.68 -5 3.36 -5 2 C-3.35 2 -1.7 2 0 2 C0 1.34 0 0.68 0 0 Z " fill="#6BB6CF" transform="translate(223,173)"/>
<path d="M0 0 C0.33 0.66 0.66 1.32 1 2 C1.66 2 2.32 2 3 2 C3.33 3.65 3.66 5.3 4 7 C2.35 7 0.7 7 -1 7 C-1.04254356 5.00045254 -1.04080783 2.99958364 -1 1 C-0.67 0.67 -0.34 0.34 0 0 Z " fill="#2E9BCA" transform="translate(321,145)"/>
<path d="M0 0 C0.33 0 0.66 0 1 0 C1 3.63 1 7.26 1 11 C-2 7 -2 7 -1.75 4.375 C-1 2 -1 2 0 0 Z " fill="#73B994" transform="translate(291,292)"/>
<path d="M0 0 C-0.33 1.65 -0.66 3.3 -1 5 C-1.66 5 -2.32 5 -3 5 C-3 4.34 -3 3.68 -3 3 C-4.32 2.67 -5.64 2.34 -7 2 C-6 0 -6 0 -4.0625 -0.6875 C-2 -1 -2 -1 0 0 Z " fill="#4EAF84" transform="translate(286,282)"/>
<path d="M0 0 C4.95 0.33 9.9 0.66 15 1 C15 1.33 15 1.66 15 2 C9.06 2.495 9.06 2.495 3 3 C3 2.34 3 1.68 3 1 C2.01 0.67 1.02 0.34 0 0 Z " fill="#8FC8C2" transform="translate(164,280)"/>
<path d="M0 0 C1.94268841 2.91403262 3.46395304 5.85808576 5 9 C3.68 9.33 2.36 9.66 1 10 C0.63883954 8.5225254 0.28624952 7.04295325 -0.0625 5.5625 C-0.25972656 4.73878906 -0.45695313 3.91507813 -0.66015625 3.06640625 C-0.82837891 2.04353516 -0.82837891 2.04353516 -1 1 C-0.67 0.67 -0.34 0.34 0 0 Z " fill="#62ABBD" transform="translate(209,200)"/>
<path d="M0 0 C3.96 0 7.92 0 12 0 C12 0.99 12 1.98 12 3 C10.35 3 8.7 3 7 3 C7 2.34 7 1.68 7 1 C4.69 1 2.38 1 0 1 C0 0.67 0 0.34 0 0 Z " fill="#57AADB" transform="translate(222,126)"/>
<path d="M0 0 C-2.54605302 2.00047023 -4.9664636 3.82572785 -8 5 C-8.99 4.67 -9.98 4.34 -11 4 C-10.34 4 -9.68 4 -9 4 C-9 3.01 -9 2.02 -9 1 C-5.92677456 0.08941469 -3.19902639 -0.08886184 0 0 Z " fill="#8EC995" transform="translate(308,361)"/>
<path d="M0 0 C1.32 0.33 2.64 0.66 4 1 C1.19195732 3.96404505 -1.18315774 6.44499019 -5 8 C-3.62845496 5.04590299 -2.01136276 2.55991624 0 0 Z " fill="#78B99C" transform="translate(156,330)"/>
<path d="M0 0 C1.98 0 3.96 0 6 0 C5.01 0.495 5.01 0.495 4 1 C3.27306096 2.97888961 2.60183749 4.97954558 2 7 C0 5 0 5 -0.125 2.375 C-0.08375 1.59125 -0.0425 0.8075 0 0 Z " fill="#79B7B4" transform="translate(123,275)"/>
<path d="M0 0 C0 1.98 0 3.96 0 6 C-1.32 6 -2.64 6 -4 6 C-4.66 5.34 -5.32 4.68 -6 4 C-1.125 0 -1.125 0 0 0 Z " fill="#3EA4B6" transform="translate(314,184)"/>
<path d="M0 0 C1.32 0 2.64 0 4 0 C5.0625 1.875 5.0625 1.875 6 4 C5.67 4.66 5.34 5.32 5 6 C4.34 6 3.68 6 3 6 C3 5.34 3 4.68 3 4 C2.34 4 1.68 4 1 4 C0.67 2.68 0.34 1.36 0 0 Z " fill="#359EB6" transform="translate(302,184)"/>
<path d="M0 0 C1.98 0 3.96 0 6 0 C5.67 0.99 5.34 1.98 5 3 C4.34 3 3.68 3 3 3 C3 3.66 3 4.32 3 5 C1.68 4.34 0.36 3.68 -1 3 C-0.67 2.01 -0.34 1.02 0 0 Z " fill="#7CBE7F" transform="translate(322,344)"/>
<path d="M0 0 C0.99 0 1.98 0 3 0 C2.60196439 2.88575819 2.20990931 3.82189513 -0.0625 5.75 C-0.701875 6.1625 -1.34125 6.575 -2 7 C-1.125 2.25 -1.125 2.25 0 0 Z " fill="#86C0B5" transform="translate(195,284)"/>
<path d="M0 0 C-0.75 6.75 -0.75 6.75 -3 9 C-3.33 6.69 -3.66 4.38 -4 2 C-1 0 -1 0 0 0 Z " fill="#4FA8C5" transform="translate(328,159)"/>
<path d="M0 0 C0.33 0 0.66 0 1 0 C1 2.31 1 4.62 1 7 C0.01 7.33 -0.98 7.66 -2 8 C-2.125 5.125 -2.125 5.125 -2 2 C-1.34 1.34 -0.68 0.68 0 0 Z " fill="#5BB760" transform="translate(237,375)"/>
<path d="M0 0 C2.625 0.9375 2.625 0.9375 5 2 C3 4 3 4 0.375 4.125 C-0.40875 4.08375 -1.1925 4.0425 -2 4 C-2 3.01 -2 2.02 -2 1 C-1.34 0.67 -0.68 0.34 0 0 Z " fill="#73BA79" transform="translate(306,357)"/>
<path d="M0 0 C1.0326802 2.78823655 1.04509293 3.8677274 0.0625 6.75 C-0.288125 7.4925 -0.63875 8.235 -1 9 C-1.99 8.67 -2.98 8.34 -4 8 C-2.66666667 5.33333333 -1.33333333 2.66666667 0 0 Z " fill="#5CB374" transform="translate(289,314)"/>
<path d="M0 0 C0.33 0 0.66 0 1 0 C1.33 2.64 1.66 5.28 2 8 C0.35 8.66 -1.3 9.32 -3 10 C-2.01 6.7 -1.02 3.4 0 0 Z " fill="#82C39C" transform="translate(290,306)"/>
<path d="M0 0 C1.32 0.33 2.64 0.66 4 1 C4 3.64 4 6.28 4 9 C0 3 0 3 0 0 Z " fill="#55AE7C" transform="translate(337,283)"/>
<path d="M0 0 C0.66 0.33 1.32 0.66 2 1 C2 3.64 2 6.28 2 9 C1.34 9 0.68 9 0 9 C-1.125 2.25 -1.125 2.25 0 0 Z " fill="#6DB7AD" transform="translate(126,282)"/>
<path d="M0 0 C-1.1875 1.5625 -1.1875 1.5625 -3 3 C-5.6875 2.6875 -5.6875 2.6875 -8 2 C-8 1.34 -8 0.68 -8 0 C-4.94736336 -0.98120464 -3.05263664 -0.98120464 0 0 Z " fill="#74B99B" transform="translate(328,266)"/>
<path d="M0 0 C0 0.66 0 1.32 0 2 C-3.4019487 4.09350689 -6.05272412 4.17942163 -10 4 C-7.02096266 1.02096266 -4.19714671 0 0 0 Z " fill="#6EB9BD" transform="translate(348,186)"/>
<path d="M0 0 C0.99 0.99 1.98 1.98 3 3 C2.79846293 5.84875378 1.85624823 8.25099253 1 11 C0.67 11 0.34 11 0 11 C0 7.37 0 3.74 0 0 Z " fill="#5FB768" transform="translate(336,318)"/>
<path d="M0 0 C2.97 0.99 5.94 1.98 9 3 C9 3.33 9 3.66 9 4 C6.69 4 4.38 4 2 4 C1.34 2.68 0.68 1.36 0 0 Z " fill="#89C1A5" transform="translate(204,317)"/>
<path d="M0 0 C0.99 0.99 1.98 1.98 3 3 C2.01 3.66 1.02 4.32 0 5 C-1.32 4.34 -2.64 3.68 -4 3 C-2.68 2.01 -1.36 1.02 0 0 Z " fill="#68B79A" transform="translate(278,280)"/>
<path d="M0 0 C1.65 0 3.3 0 5 0 C4.34 1.32 3.68 2.64 3 4 C1.35 4 -0.3 4 -2 4 C-1.34 2.68 -0.68 1.36 0 0 Z " fill="#4BAF8C" transform="translate(265,274)"/>
<path d="M0 0 C3.465 1.98 3.465 1.98 7 4 C6.67 4.66 6.34 5.32 6 6 C4.68 6 3.36 6 2 6 C2 4.68 2 3.36 2 2 C1.34 2 0.68 2 0 2 C0 1.34 0 0.68 0 0 Z " fill="#66B2CF" transform="translate(322,145)"/>
<path d="M0 0 C3.96 1.98 3.96 1.98 8 4 C7.67 4.66 7.34 5.32 7 6 C3.75728494 5.4409112 2.06942576 4.5867822 0 2 C0 1.34 0 0.68 0 0 Z " fill="#78BD9D" transform="translate(196,312)"/>
<path d="M0 0 C1.67542976 0.28604898 3.34385343 0.61781233 5 1 C3.35 2.65 1.7 4.3 0 6 C-0.38218767 4.34385343 -0.71395102 2.67542976 -1 1 C-0.67 0.67 -0.34 0.34 0 0 Z " fill="#79C4B4" transform="translate(188,290)"/>
<path d="M0 0 C-1.36983503 3.16115776 -1.9890638 3.9927092 -5 6 C-5 4.35 -5 2.7 -5 1 C-2 0 -2 0 0 0 Z " fill="#7FC1AC" transform="translate(347,241)"/>
<path d="M0 0 C0 3.20395416 -0.74335022 5.09399739 -2 8 C-3.32 7.67 -4.64 7.34 -6 7 C-4.02 4.69 -2.04 2.38 0 0 Z " fill="#77BCD7" transform="translate(176,149)"/>
<path d="M0 0 C0.66 0 1.32 0 2 0 C1.38722388 2.96175123 0.74627478 4.38058783 -1 7 C-1.66 7 -2.32 7 -3 7 C-2.38722388 4.03824877 -1.74627478 2.61941217 0 0 Z " fill="#2E96D0" transform="translate(177,149)"/>
<path d="M0 0 C3.68754757 0.49831724 5.60490662 1.10067643 8 4 C5.69 3.67 3.38 3.34 1 3 C0.67 2.01 0.34 1.02 0 0 Z " fill="#77B8D2" transform="translate(309,138)"/>
</svg>
